<?xml version="1.0" encoding="UTF-8"?>
<svg id="Layer_1" data-name="Layer 1" xmlns="http://www.w3.org/2000/svg" viewBox="0 0 606.04 580.19">
  <defs>
    <style>
      .cls-1 {
        fill: #020202;
      }

      .cls-2 {
        fill: #eeeee7;
      }

      .cls-3 {
        stroke-width: 4px;
      }

      .cls-3, .cls-4 {
        fill: none;
        stroke: #000;
        stroke-miterlimit: 10;
      }

      .cls-4 {
        stroke-width: 3px;
      }

      .cls-5 {
        font-family: TAYBigBirdRegular, 'TAY Big Bird';
        font-size: 23.15px;
      }
    </style>
  </defs>
  <path class="cls-1" d="M300.05,182.77c4.5,1.71,8.71,4,12.75,6.62.76.49,1.47,1.04,2.01,1.81.38.56.93,1,1.41,1.48.25.25.52.47.69.81.16.32.52.43.83.56,2.19.91,4.38,1.83,6.59,2.7,2.17.85,4.25,1.88,6.33,2.91.71.36,1.27.96,1.81,1.54.66.72,1.46,1.18,2.33,1.57,4.32,1.91,4.54,1.48,7.85,4.24.77.65,1.42,1.42,2.09,2.18.39.44.86.8,1.42,1,3.15,1.09,5.95,2.84,8.69,4.69.76.51,1.53.99,2.25,1.55,1.65,1.3,2.43,3.09,2.92,5.05.32,1.28.35,2.58.09,3.87-.61,3.07-1.74,5.96-3.08,8.76-.75,1.55-2.15,2.34-3.77,2.78-.28.07-.55,0-.82-.03-1.51-.17-2.95-.68-4.44-.9-1.29-.18-2.52.03-3.74.46-.21.07-.42.17-.66.16-1.22-.05-2.43.07-3.65,0-1.43-.07-2.86.11-4.28.27-.58.07-1.12.26-1.6.64-.42.33-.95.48-1.49.56-1.88.29-3.74.71-5.58,1.19-1.74.46-3.53.76-5.26,1.27-.54.16-1.04.38-1.48.72-.52.4-1.12.66-1.72.91-1.23.51-2.48,1.01-3.8,1.21-1.53.24-3.08.2-4.62.06-1.83-.17-3.65-.42-5.46-.73-1.16-.2-2.3.03-3.45.04-1.29.01-2.51.32-3.71.73-5.72,1.92-13.9,2.93-19.55.69-1.3-.52-2.57-1.09-3.86-1.65-.39-.17-.73-.4-1.05-.69-.78-.73-1.8-.78-2.8-.79-1.62-.02-3.2.3-4.79.54-1.99.3-3.97.73-5.94,1.13-1.84.37-3.56,1.15-5.31,1.78-1.15.41-2.29.71-3.5.79-2.12.13-4.22.11-6.29-.48-1.22-.35-2.28-1.02-3.36-1.65-.44-.26-.85-.45-1.35-.48-.75-.04-1.49.01-2.21.26-.41.14-.85.2-1.29.26-1.26.19-2.43.72-3.67.99-.73.16-1.46.33-2.19.48-1.45.3-2.88.16-4.31-.11-1.25-.24-2.22-.92-2.87-2.01-.39-.66-.91-.9-1.66-.82-1.48.15-2.95.04-4.41-.31-.37-.09-.62-.3-.85-.6-1.75-2.28-2.78-4.9-3.71-7.59-1.54-4.44-1.21-11.23.73-15.5.89-1.97,2.42-3.43,4.03-4.75,2.76-2.27,5.75-4.21,8.98-5.73,1.48-.7,2.99-1.35,4.5-2,1.05-.46,2.18-.62,3.3-.85.19-.04.38-.08.58-.1,1.47-.15,2.21-1.15,2.54-2.41.43-1.63.99-3.21,1.75-4.7,1.59-3.13,7.93-4.95,11.25-5.67.8-.17,1.49-.66,2.08-1.22.54-.51,1.16-.89,1.8-1.24,1.94-1.06,3.89-2.1,5.89-3.05.4-.19.8-.42,1.22-.48,1.58-.24,2.87-1.04,4.14-1.95,1.69-1.21,3.66-1.8,5.59-2.49,1.4-.5,2.87-.72,4.34-.9,3.36-.4,6.74-.57,10.11-.77,4.08-.24,10.96,1.94,14.71,3.37M213.73,222.04h0c-.74,3.69.09,9.83,1.41,13.24.3.77.67,1.51,1.03,2.26.4.82.82,1.62,1.57,2.21.28.22.58.35.94.36,1.23.02,2.32-.42,3.36-1.03.88-.53.99-.79.79-1.81-.19-.96-.47-1.89-.79-2.81-1.13-3.24-2.29-6.47-4.37-9.27-.44-.59-.79-1.27-1.03-2.01-.47-1.46-.23-2.67.86-3.74.65-.63,1.33-1.07,2.3-.86.62.13,1.26.17,1.88.25.37.05.73.13,1.08.28,2,.86,4.02,1.67,5.88,2.83.99.62,2.03,1.16,2.88,1.98.7.68,1.44,1.32,2.15,1.99.71.67,1.51,1.31,1.95,2.17.45.87,1.11,1.54,1.67,2.31.81,1.11,1.74,2.18,2.31,3.43.82,1.81,1.49,3.67,1.87,5.63.11.56.27,1,.78,1.43,2.04,1.74,4.42,2.4,7.03,2.47.36.01.88,0,1.02-.49.32-1.13.55-2.29.51-3.46-.08-2.6-.79-5.06-1.78-7.45-.8-1.93-2.03-3.59-3.25-5.25-2-2.72-4.31-5.17-6.84-7.41-1.29-1.15-2.55-2.35-4.07-3.25-2.14-1.27-4.54-1.83-6.82-2.71-.32-.12-.68-.15-.86-.49-.14-.26-.15-.47.24-.49.52-.02,1.04-.07,1.56-.08,1.76-.02,3.39.39,4.91,1.34,2.11,1.3,4.02,2.86,5.93,4.43,2.86,2.33,5.47,4.91,7.61,7.93.18.25.39.48.6.7.78.8,1.33,1.76,1.81,2.75.71,1.47,1.34,2.99,1.89,4.53.51,1.42.89,2.85.88,4.37,0,1.16-.02,2.31-.13,3.46-.06.58-.04.59.47.36,2.04-.88,4.13-1.59,6.3-2.03,2.25-.45,4.5-.87,6.77-1.19,2.26-.32,4.52-.54,6.8-.4.67.04,1.42,0,1.86.65.25.37.53.42.91.35.53-.09,1.07-.24,1.59-.2,1.01.08,1.38-.18,1.44-1.17.14-2.54-.18-5.02-.77-7.48-.33-1.37-.74-2.73-1.09-4.1-1.03-3.99-2.62-7.72-5.05-11.07-.79-1.08-1.37-2.31-2.29-3.28-2.57-2.73-4.95-5.67-8.11-7.78-.19-.12-.34-.3-.53-.43-.8-.6-1.53-1.33-2.4-1.84-.85-.5-1.76-.86-2.56-1.47-.75-.57-1.71-.78-2.57-1.17-2.52-1.15-5.13-1.38-7.8-.61-1.57.45-3.01,1.22-4.45,1.96-1.28.65-1.67,1.74-1.67,3.05,0,.32-.09.48-.37.59-1.55.6-3.06,1.29-4.64,1.79-2.35.75-4.6,1.7-6.76,2.89-2.26,1.24-4.63,2.3-6.76,3.79-1.86,1.3-3.6,2.73-5.08,4.45-1.12,1.29-1.91,2.79-2,4.62M240.37,199.39h0l.1.08c.54-.33,1.06-.71,1.67-.89.61-.18,1.22-.34,1.84-.49,2.48-.58,4.93-1.18,7.52-.36,2.02.64,4.04,1.24,6,2.04.34.14.67.34.98.55,1.99,1.33,3.91,2.73,5.77,4.25,3.11,2.54,5.8,5.45,8.12,8.72,1.44,2.04,2.58,4.25,3.68,6.48.57,1.15,1.24,2.26,1.63,3.49.81,2.51,1.43,5.07,1.93,7.66.3,1.6.52,3.21.75,4.82.13.9.22,1.73,0,2.63-.29,1.22-.99,2.01-2.12,2.47-.25.1-.49.26-.72.41-.11.07-.24.12-.06.28.39.37.81.67,1.37.61,4.63,1.35,8.14.87,15.78-.51,1.59-.29,3.15-.65,4.68-1.17.78-.27,1.61-.53,2.39-.34.99.24,1.5-.29,2.12-.83.42-.37.72-.76.88-1.3.64-2.1,1.09-4.2.88-6.43-.14-1.58-.04-3.19-.14-4.78-.17-2.65-.7-5.25-1.22-7.85-.18-.92-.29-1.89-.67-2.74-.63-1.4-1-2.89-1.62-4.28-.67-1.5-1.33-3.03-2.4-4.28-1.33-1.54-2.6-3.12-4.02-4.58-1.16-1.2-2.18-2.54-3.42-3.68-2.45-2.27-5.08-4.31-7.82-6.21-.14-.1-.27-.2-.31-.36-.12-.49-.5-.73-.9-.96-.79-.46-1.59-.89-2.33-1.43-1.09-.8-2.37-1.27-3.56-1.88-1.78-.91-3.78-1.14-5.72-1.57-1.58-.34-3.21-.54-4.74-1.1-.56-.2-1.01.06-1.44.38-.15.12-.23.28-.16.47.08.21.23.32.45.29.32-.04.63.02.91.13,1.01.39,2.09.4,3.09.94.99.54,2.18.72,3.29,1.04,1.83.52,3.63,1.12,5.3,2.07.33.19.68.32,1.04.42.57.17,1.07.46,1.57.77,1.15.72,2.11,1.7,3.31,2.32,1.22.63,2.25,1.49,3.24,2.4,3.03,2.79,5.86,5.77,8.59,8.86,1.32,1.49,2.57,3.01,3.56,4.75,2.5,4.38,3.71,9.16,4.46,14.1.3,1.98.35,3.98.54,5.97.21,2.19.14,4.35-.66,6.44-.25.66-.58,1.26-.95,1.86-.17.28-.5.43-.81.27-.27-.14-.27-.46-.23-.74.04-.24.12-.48.29-.66.4-.42.56-.95.66-1.5.29-1.61.38-3.23.33-4.86-.07-2.24-.21-4.48-.47-6.71-.57-5.04-2.25-9.68-4.99-13.92-1.95-3.03-4.28-5.76-6.77-8.36-1.41-1.47-2.89-2.86-4.45-4.16-1.94-1.62-4.15-2.86-6.17-4.36-.48-.36-1-.66-1.54-.93-1.66-.83-3.39-1.49-5.08-2.25-3.54-1.59-7.28-2.49-11.1-3.09-.28-.04-.55-.03-.82.07-1.29.46-2.6.77-3.74,1.66-1.8,1.39-3.85,2.42-5.79,3.61-.42.25-.85.48-1.33.59-1.44.34-2.88.68-4.29,1.12-2.76.86-3.29.99-5.26,3.18-.36.4-.6.91-.89,1.36M283.36,181.76c-3.06,0-6.11.14-9.14.52-2.02.25-4,.59-5.58,2.05-.44.41-.48.45.07.68,1.08.44,2.21.75,3.35.86,1.93.19,3.71.8,5.44,1.6,1.58.73,3.05,1.67,4.58,2.5,2.91,1.57,5.5,3.58,8.04,5.66,3.06,2.51,5.84,5.31,8.54,8.2,1.57,1.69,3.01,3.45,3.87,5.63,1.12,2.83,2.21,5.66,2.91,8.63.68,2.87,1.25,5.75,1.4,8.7.12,2.47.18,4.94-.25,7.39-.31,1.76-.69,3.51-1.07,5.25-.08.35-.12.72.19.95.44.31.88.63,1.47.69.86.1,1.72.07,2.58.06,1.06-.02,2.1.24,3.15.31.97.06,1.91,0,2.75-.59.34-.24.76-.38,1.12-.58,1.68-.95,3.18-2.05,3.46-4.16l.03-.09c.54-1.27.74-2.63.99-3.96.62-3.19,1.08-6.42,1.22-9.67.16-3.57.36-7.13-.34-10.69-.57-2.95-1.31-5.82-2.31-8.65-1.44-4.07-3.87-7.45-6.92-10.43-1.08-1.05-2.3-1.96-3.51-2.87-1.4-1.05-2.96-1.81-4.47-2.66-1.39-.79-2.91-1.28-4.38-1.87-6.61-2.67-10.43-3.47-17.19-3.46M319.22,197.19h0c-.03.21.07.3.14.41.92,1.58,1.69,3.23,2.28,4.95,1.19,3.46,1.94,7.02,2.41,10.64.24,1.8.48,3.6.6,5.41.14,2.16-.21,4.31-.39,6.47-.4,4.77-1.38,9.41-2.93,13.95.08.03.16-.13.29-.19.8-.35,1.53-.86,2.4-1.05.52-.12,1.03-.33,1.55-.42,1.21-.22,2.28-.88,3.48-1.08.94-.16,1.86-.45,2.83-.53.17-.01.32-.07.43-.19.51-.56,1.07-1.08,1.36-1.82.18-.45.39-.91.7-1.27.36-.42.62-.87.76-1.39.4-1.45.46-2.95.63-4.43.53-4.47.16-8.92-.42-13.37-.25-1.94-.74-3.83-1.47-5.65-.08-.18-.45-.41-.11-.61.32-.19.47.16.63.38.09.12.16.25.24.37.85,1.25,1.27,2.65,1.57,4.11.7,3.38,1.22,6.78,1.04,10.25-.16,3.06-.52,6.09-.95,9.11-.13.91-.35,1.78-.74,2.61-.08.18-.28.32-.23.58.28-.03.53-.09.79-.09,2.58-.04,5.17.06,7.75-.18.35-.03.55-.11.73-.41.4-.67.59-1.5,1.37-1.89l.15-.19c.52-.64.73-1.41.87-2.2.63-3.83.66-7.64-.42-11.41-.44-1.53-.84-3.09-1.73-4.44-1.05-1.6-2.12-3.19-3.1-4.84-.25-.41-.57-.74-.91-1.08-1.22-1.24-2.77-1.85-4.39-2.32-.86-.25-1.29,0-1.52.86-.08.3-.23.36-.49.34-.35-.03-.62-.19-.82-.47-.26-.35-.48-.74-.75-1.08-.86-1.09-1.38-2.5-2.78-3.12-.11-.05-.19-.18-.3-.25-.58-.41-.94-1.09-1.66-1.33-.74-.25-1.49-.47-2.2-.78-1.56-.66-3.24-.98-4.77-1.72-.59-.28-1.2-.57-1.9-.64M218.74,220.23h0c-.58-.16-.88.13-1.12.54-.3.5-.32,1.02-.07,1.32.93,1.09,1.73,2.27,2.36,3.57.54,1.13,1.01,2.29,1.62,3.38,1.02,1.83,1.66,3.81,2.29,5.79.42,1.32.65,2.69.82,4.06.18,1.38.8,2.52,1.59,3.61.16.22.33.31.61.3,1.79-.05,3.57-.18,5.33-.52,2.03-.39,3.96-1,5.67-2.22.39-.28.8-.59,1.31-.61.45-.01.55-.2.53-.64-.06-1.11-.44-2.11-.81-3.14-.26-.7-.51-1.4-.91-2.04-.35-.57-.81-1.05-1.18-1.61-.72-1.1-1.48-2.17-2.26-3.23-.29-.38-.55-.8-.98-1.08-.85-.57-1.66-1.18-2.43-1.87-.58-.52-1.21-.99-1.87-1.39-1.19-.72-2.39-1.45-3.65-2.05-1.81-.86-3.59-1.83-5.67-1.94-.42-.03-.84-.08-1.18-.23M351.42,234.66h0c.73.07,1.47.37,2.19-.06,1.53-.91,2.58-2.2,3.21-3.85.71-1.87.83-3.83.99-5.79.14-1.68,0-3.35-.31-5-.05-.24-.11-.48-.32-.64-.65-.51-1.23-1.11-1.93-1.56-1.73-1.12-3.53-2.13-5.19-3.36-.76-.57-1.52-1.17-2.45-1.47-.25-.08-.48-.08-.68.11-.19.18-.18.4-.11.64.17.53.35,1.05.48,1.58.55,2.23.87,4.49,1.09,6.78.13,1.36.03,2.7-.21,4.03-.2,1.09-.44,2.17-.66,3.25-.16.81-.46,1.62-.44,2.44.02.58-.07,1.09-.31,1.59-.13.27-.05.34.23.35.89.02,1.74.21,2.57.52.6.22,1.21.38,1.84.45M240.84,202.92c0-.57.21-.87.67-1.11,1.09-.55,2.22-1.02,3.34-1.48.66-.27,1.34-.3,2.06-.2,4.44.65,8.43,2.45,12.28,4.66,3.23,1.84,5.69,4.51,8.08,7.26,1.21,1.38,2.51,2.69,3.47,4.28,1.35,2.21,2.59,4.47,3.36,6.96.64,2.06,1.44,4.08,1.88,6.2.51,2.49.78,5.01.74,7.56,0,.18-.01.36-.03.53-.06.68-.31.94-.89.91-.7-.04-1.02-.37-1.05-1.02-.11-2.78-.31-5.55-.85-8.29-.19-.96-.22-1.93-.47-2.88-.74-2.79-1.88-5.4-3.48-7.8-2.62-3.94-5.53-7.64-9.05-10.83-1.4-1.27-2.83-2.46-4.54-3.33-1-.51-1.92-1.19-2.97-1.66-2.11-.96-4.25-1.71-6.63-1.5-2.07.18-4.11.45-5.94,1.72M228.17,214.82c.38.17.77-.07,1.18,0,.94.17,1.81.53,2.65.97,3.39,1.78,6.25,4.26,8.89,6.99,1.6,1.65,3.04,3.43,4.37,5.3,1.64,2.32,2.89,4.83,3.72,7.53.4,1.29.47,2.65.65,3.99.09.66-.15,1-.63,1.09-.44.08-.78-.22-.94-.84-.16-.6-.25-1.21-.32-1.83-.34-2.91-1.47-5.54-2.76-8.13-.88-1.77-2.19-3.24-3.49-4.68-2.82-3.14-5.95-5.95-9.64-8.07-1.28-.73-2.65-1.14-4.04-1.55-.16-.05-.32-.07-.47-.11-.17-.05-.29-.16-.29-.35,0-.19.14-.28.31-.33.26-.08.52-.01.8.02M266.73,236.15c-.09.39-.14.69-.23.99-.1.34-.35.53-.7.47-.36-.06-.51-.34-.49-.68.04-.47.14-.93.17-1.4.21-3.23-.49-6.31-1.61-9.32-.53-1.43-1.35-2.7-2.05-4.04-.07-.13-.13-.26-.17-.4-.04-.17.01-.32.16-.43.15-.11.32-.11.45,0,.15.12.29.26.41.41.96,1.15,1.61,2.46,2.25,3.8,1.1,2.29,1.7,4.7,1.94,7.2.11,1.16-.04,2.34-.15,3.41M258.05,238.21c-.06.51-.27.79-.72.81-.38.01-.67-.28-.67-.75,0-2.4-.59-4.69-1.28-6.97-.52-1.7-1.31-3.29-2-4.92-.1-.23-.31-.49,0-.69.31-.21.52.05.69.26.59.71.91,1.57,1.32,2.38,1.28,2.57,1.91,5.34,2.57,8.11.14.6.12,1.23.08,1.76M269.93,235.08c-.15.83-.41,1.63-.73,2.41-.12.29-.61.47-.91.33-.36-.16-.52-.45-.39-.83.12-.33.3-.64.46-.96.65-1.32.58-2.7.4-4.1-.22-1.77-.49-3.53-1.03-5.25l-.02-.09c0-.34-.13-.82.28-.94.45-.14.5.36.64.65,1.23,2.61,1.52,5.38,1.4,8.21,0,.19-.06.38-.09.58M263.83,235.44c-.19.84-.29,1.5-.55,2.12-.13.32-.3.6-.7.56-.41-.05-.48-.38-.52-.72-.03-.28.02-.55.07-.82.23-1.35.33-2.7.13-4.07-.21-1.38-.23-2.79-.74-4.11l-.02-.1c-.03-.3-.18-.68.19-.81.39-.14.47.28.64.52.47.66.97,1.29,1.09,2.13.14,1,.31,1.99.48,2.98.15.85.19,1.68-.07,2.31M246.93,239.45c-.06.31-.16.55-.47.6-.29.05-.45-.15-.58-.37-.05-.08-.09-.18-.1-.27-.57-3.76-2.19-7.11-4.05-10.37-.14-.24-.24-.5-.33-.75-.06-.16-.06-.34.1-.44.17-.11.31,0,.43.1.48.42.88.92,1.21,1.46,1.68,2.77,2.89,5.74,3.67,8.88.1.39.14.8.12,1.17M272.94,234.57c-.16.68-.28,1.18-.4,1.69-.13.54-.43.83-.79.75-.3-.06-.59-.63-.58-1.04.05-1.81.32-3.61.21-5.42-.05-.71-.15-1.42-.23-2.13-.02-.19-.03-.39-.01-.58.01-.19.12-.34.32-.38.2-.04.35.06.44.23.1.18.2.37.27.57.69,2.11.91,4.27.76,6.31M271.29,225.43c-.06.41-.68.85-1,.76-.12-.03-.12-.14-.15-.23-.47-1.64-1.25-3.17-1.84-4.76-.05-.14-.1-.28-.13-.42-.05-.22,0-.42.2-.55.2-.13.4-.1.59.03.18.12.31.28.43.46.84,1.38,1.44,2.87,1.86,4.43.03.11.03.22.04.28M254.26,233.48c-.04.24-.16.39-.36.46-.21.07-.39.01-.53-.15-.14-.17-.21-.37-.26-.57-.32-1.5-1.02-2.84-1.76-4.16-.32-.57-.61-1.15-.91-1.73-.1-.2-.24-.44.02-.61.23-.14.4.06.53.22,1.54,1.87,2.67,3.95,3.23,6.33.02.08.02.16.03.21M260.72,225.89c-.07.4-.32.49-.64.3-.3-.19-.49-.48-.63-.79-.54-1.24-1.25-2.38-1.99-3.51-.16-.24-.26-.52-.37-.79-.07-.18-.02-.36.13-.49.15-.13.32-.14.5-.06.18.07.35.18.47.34,1.08,1.39,2.06,2.84,2.45,4.6.03.16.05.32.06.41M244.15,238.94c-.06.34-.23.56-.56.62-.34.06-.56-.12-.68-.42-.25-.62-.24-1.3-.41-1.95-.2-.8-.35-1.62-.52-2.43-.05-.22-.07-.45-.08-.67,0-.15.02-.29.18-.37.16-.08.28.02.4.11.18.14.32.33.42.53.72,1.37,1.16,2.82,1.25,4.37,0,.08,0,.16,0,.22M258.39,228.11c-.04.27-.19.45-.46.51-.29.06-.54-.06-.62-.34-.45-1.49-1.27-2.8-2.05-4.13-.13-.21-.23-.46.02-.66.24-.19.47-.06.66.1.54.45.96,1.01,1.33,1.6.42.65.74,1.37.99,2.11.09.26.16.53.13.81M221.78,237.01c-.05.3-.18.47-.42.55-.23.07-.43,0-.56-.18-.12-.15-.24-.32-.29-.5-.33-1.1-.66-2.2-.96-3.31-.08-.3-.24-.69.16-.86.42-.18.6.22.78.49.68,1.05.98,2.25,1.28,3.45.04.14.02.29.02.38M252.63,224.22c-.05.34-.32.5-.64.38-.22-.08-.37-.25-.5-.44-.74-1.07-1.54-2.09-2.36-3.09-.09-.11-.18-.23-.24-.36-.08-.15-.09-.31.04-.45.13-.13.29-.13.45-.07.29.12.54.3.76.52.9.88,1.63,1.89,2.35,2.91.13.18.17.38.15.6M267.61,224.88c-.02.19-.1.34-.29.42-.2.08-.35-.03-.47-.16-.09-.09-.16-.2-.21-.32-.53-1.19-1.22-2.29-1.98-3.34-.08-.12-.16-.24-.23-.37-.1-.18-.15-.37.02-.53.18-.17.4-.14.58,0,.22.17.41.36.61.56.92.91,1.51,2.02,1.92,3.24.06.17.09.34.06.52M219.28,230.34c-.03.28-.16.45-.37.53-.24.09-.45-.03-.61-.2-.33-.37-.52-.83-.71-1.27-.33-.78-.75-1.51-1.11-2.27-.1-.21-.17-.44.05-.62.25-.19.48-.07.65.11.94.99,1.59,2.16,2.05,3.44.04.1.03.22.04.29M260.75,210.49c.08.03.22.07.35.14.99.52,1.8,1.25,2.49,2.13.16.21.29.44.21.72-.14.5-.77.63-1.12.2-.66-.81-1.42-1.51-2.2-2.2-.1-.09-.18-.19-.26-.29-.12-.16-.2-.35-.07-.54.13-.18.32-.2.59-.16M267.44,218.35c-.06.27-.22.46-.49.55-.28.08-.36-.15-.48-.31-.62-.86-1.21-1.73-2-2.44-.07-.06-.13-.14-.18-.23-.16-.28-.2-.56.06-.79.26-.23.55-.2.79.02.86.77,1.63,1.62,2.18,2.65.09.17.15.36.11.56M260.74,233.43c-.12.39-.23.74-.64.78-.41.04-.61-.28-.66-.6-.14-.95-.42-1.86-.7-2.77-.09-.28,0-.55.29-.7.27-.14.54-.08.69.15.64.97.94,2.05,1.02,3.14M243.38,218.25c.35.11.67.3.95.55.75.66,1.36,1.43,1.94,2.23.19.26.38.59.05.87-.34.3-.66.07-.88-.19-.8-.94-1.58-1.89-2.36-2.84-.12-.14-.25-.32-.11-.53.1-.14.25-.12.41-.09M219.83,238.07c-.07.24-.21.43-.49.46-.3.03-.5-.12-.61-.39-.2-.51-.38-1.03-.56-1.56-.21-.64-.43-1.29-.62-1.94-.07-.23-.16-.52.13-.64.27-.11.38.17.5.35.61.98,1.09,2.02,1.52,3.09.08.19.14.4.12.62M255,238.33c-.09.34-.16.7-.29,1.03-.15.4-.56.6-.89.48-.35-.13-.53-.51-.4-.92.2-.66.33-1.32.41-2,.02-.13.04-.26.09-.37.1-.24.24-.43.53-.42.27,0,.39.2.47.43.2.59.17,1.18.07,1.78M260.72,237.01c-.07.35-.14.63-.3.88-.21.33-.52.44-.88.29-.35-.15-.48-.45-.38-.8.17-.57.34-1.14.44-1.74.04-.26.2-.5.51-.51.34,0,.46.26.53.54.12.46.13.92.08,1.33M260.86,215.96c-.24-.03-.41-.2-.56-.36-.45-.49-.9-.98-1.34-1.48-.07-.08-.13-.18-.18-.28-.09-.19-.12-.38.04-.54.16-.16.37-.17.54-.06.76.48,1.46,1.03,1.97,1.78.14.21.23.47.04.73-.13.17-.3.24-.51.22M236.62,225.49c.11.06.3.14.48.25.64.39,1.09.96,1.51,1.56.2.3.24.63-.09.86-.31.21-.6.05-.8-.21-.48-.61-1-1.19-1.55-1.74-.15-.15-.27-.35-.15-.57.11-.2.31-.21.6-.15M238.53,223.88c.65.11,1.67,1.2,1.76,1.87.03.25-.04.45-.26.58-.21.12-.43.11-.59-.05-.51-.52-1.01-1.05-1.5-1.59-.15-.17-.15-.39-.01-.59.15-.21.36-.26.6-.22M241.78,232.68c-.04.24-.15.39-.36.44-.21.05-.41-.03-.51-.2-.42-.76-.83-1.54-1.22-2.32-.08-.16-.06-.36.09-.49.14-.12.33-.12.45,0,.74.66,1.28,1.45,1.55,2.41v.17ZM259.86,217.57c.18.04.32.15.45.29.36.39.7.81.88,1.33.1.3.02.55-.26.7-.27.15-.52.08-.69-.16-.33-.46-.63-.94-.94-1.42-.11-.17-.1-.37.04-.55.14-.16.31-.22.52-.19M257.42,207.8c.53.22,1.11.53,1.55,1.04.16.18.19.42.02.62-.19.22-.43.24-.65.08-.47-.34-.93-.69-1.39-1.05-.16-.13-.25-.31-.14-.52.11-.2.31-.22.6-.17M252.99,220.42c.5.1,1.14.77,1.18,1.24.03.41-.31.73-.67.58-.52-.22-.94-.59-1.12-1.15-.13-.42.19-.75.62-.67M262.13,217c.32.07,1.17,1.04,1.22,1.39.03.2-.05.35-.22.45-.15.09-.32.11-.45-.01-.42-.39-.72-.87-.97-1.37-.13-.26.14-.51.43-.45M248.02,222.93c.41.24.75.61.9,1.14.05.17,0,.32-.16.43-.17.12-.34.11-.5,0-.42-.28-.69-.69-.81-1.16-.08-.32.18-.52.56-.4M246.48,241.6c-.1.31-.32.49-.69.43-.35-.06-.61-.51-.52-.92.08-.35.32-.52.68-.46.34.05.61.54.52.96M290.63,236.97c-.2,1.11-.48,2.19-1.12,3.14-.14.2-.24.45-.56.33-.3-.11-.48-.34-.48-.67,0-.16.04-.33.1-.47.56-1.31.57-2.71.76-4.09.21-1.53-.22-2.92-.54-4.36-.57-2.52-1.12-5.04-1.78-7.54-.32-1.2-.91-2.29-1.4-3.42-.33-.78-.65-1.56-.95-2.35-.08-.21-.18-.46.11-.6.25-.12.42.04.58.22.54.63.85,1.38,1.18,2.12.63,1.44,1.59,2.72,2.04,4.26.87,3.01,1.65,6.04,2.07,9.16.19,1.44.19,2.84-.02,4.26M298.98,235.78c-.09.94-.25,1.75-.56,2.53-.1.27-.22.54-.44.76-.23.23-.5.3-.8.14-.31-.16-.3-.41-.22-.71.56-1.93.97-3.9.81-5.91-.22-2.82-.67-5.61-1.35-8.36-.5-1.99-1.13-3.93-1.63-5.92-.05-.17-.09-.35-.12-.52-.04-.23-.18-.51.12-.65.29-.13.44.15.59.32.33.39.56.84.74,1.31,1.42,3.81,2.4,7.72,2.73,11.78.06.76.18,1.51.25,2.27.1,1.03.02,2.04-.13,2.95M296.19,236.15c-.22,1.17-.57,2.3-1.15,3.35-.16.29-.35.49-.69.34-.35-.15-.4-.43-.25-.77,1-2.34,1.11-4.79.81-7.27-.26-2.18-.73-4.32-1.13-6.48-.11-.57-.2-1.15-.29-1.73-.04-.28-.05-.6.3-.69.35-.08.47.22.58.48.57,1.43.79,2.94,1.15,4.43.5,2.04.76,4.12.88,6.21.04.72-.07,1.43-.21,2.12M282.49,226.44c-.03.2-.07.37-.26.41-.21.04-.34-.12-.42-.27-.34-.6-.58-1.24-.77-1.89-.94-3.11-2.21-6.07-3.65-8.98-.6-1.23-1.21-2.45-1.93-3.61-.08-.12-.14-.26-.2-.39-.11-.23-.19-.48.06-.66.28-.2.5-.02.68.17.46.51.87,1.05,1.21,1.65,1.05,1.86,1.93,3.79,2.76,5.75.89,2.1,1.69,4.22,2.33,6.41.14.48.14.96.19,1.41M284.45,238.31c-.24.7-.35,1.36-.67,1.96-.13.23-.28.44-.48.61-.26.23-.55.36-.88.14-.34-.23-.38-.55-.24-.9.24-.6.45-1.21.59-1.85.33-1.51.16-3.04.23-4.56.05-1.21.07-2.44-.21-3.64-.04-.18,0-.39.04-.57.08-.34.43-.42.68-.16.2.22.31.49.4.77.52,1.63.55,3.32.59,5.01.02,1.09-.02,2.17-.03,3.19M293.46,237.27c-.09,1-.51,1.87-1.05,2.7-.1.14-.23.27-.38.37-.2.14-.44.15-.64,0-.2-.14-.31-.34-.24-.59.05-.17.09-.36.19-.5.99-1.35,1.05-2.9,1-4.47-.04-1.38-.09-2.76-.44-4.11-.07-.27-.02-.54.29-.64.29-.1.41.12.58.31.88,1.02.77,2.28.83,3.47.07,1.15-.04,2.3-.14,3.45M284.68,223.15c-.04.24-.17.4-.38.48-.22.08-.42.02-.58-.15-.08-.09-.16-.21-.2-.33-1.04-2.79-2.55-5.37-3.76-8.08-.15-.34-.25-.7-.37-1.05-.04-.12-.08-.26.06-.36.16-.11.27.01.38.11.29.26.56.54.77.87,1.53,2.48,2.88,5.05,3.94,7.76.09.24.16.49.14.75M259.18,190.9c.54.09,1.08.21,1.63.27,1.85.21,3.62.76,5.38,1.33.5.16.96.41,1.29.84.37.47.17.94-.41,1.02-.32.05-.61-.03-.9-.16-2.29-1.06-4.69-1.81-7.13-2.42-.16-.04-.32-.06-.44-.18-.17-.17-.22-.35-.11-.57.1-.22.27-.18.45-.13.08.02.16.04.24.06v-.06ZM301.29,235.97c-.1.59-.2,1.18-.31,1.77-.04.21-.1.41-.17.61-.14.38-.41.59-.83.5-.37-.09-.55-.46-.42-.9.25-.82.51-1.64.66-2.49.08-.45.17-.89.02-1.34-.08-.23-.04-.48,0-.73.13-1,.16-2,.11-3.01-.02-.33.03-.65.42-.71.37-.06.51.23.6.52.29.94.29,1.92.29,2.9,0,.98-.15,1.94-.37,2.89M287.44,238.69c-.06.5-.15,1.03-.37,1.53-.05.12-.09.24-.16.35-.27.47-.75.7-1.08.54-.35-.16-.46-.57-.28-1.12.58-1.74.7-3.52.42-5.33-.01-.08-.03-.16-.03-.24,0-.39.02-.79.51-.87.47-.07.61.29.72.64.45,1.47.58,2.96.27,4.5M297.23,214.46c-.05.26-.19.43-.42.51-.24.08-.45.02-.62-.17-.08-.1-.15-.21-.21-.32-.91-1.86-2.02-3.6-3.11-5.35-.2-.31-.58-.68-.14-1.02.43-.34.72.11.96.38.92,1.02,1.55,2.24,2.32,3.37.38.55.71,1.13,1.01,1.72.14.28.23.57.22.88M280.31,195.94c.93.29,1.86.73,2.67,1.36.59.45,1.14.96,1.7,1.46.35.31.54.71.59,1.19.04.35-.12.45-.42.39-.29-.06-.55-.18-.78-.38-1.18-1.04-2.4-2.03-3.75-2.85-.18-.11-.35-.25-.49-.4-.16-.17-.39-.36-.24-.63.15-.27.42-.17.72-.13M300.16,221.11c-.05.35-.17.59-.48.67-.34.09-.55-.1-.73-.35-.11-.16-.19-.34-.24-.53-.36-1.35-.64-2.72-1.13-4.02-.08-.21-.09-.42.09-.58.2-.18.41-.14.63-.03.19.09.37.21.49.38.97,1.26,1.17,2.78,1.39,4.29.01.08-.01.16-.02.18M292.42,227.8c-.07.43-.31.66-.7.68-.4.01-.64-.23-.7-.61-.28-1.72-.76-3.38-1.19-5.05-.09-.33.12-.54.46-.45.21.06.36.22.48.4.89,1.43,1.38,3,1.65,4.65.02.14,0,.29,0,.39M269.78,192.36c-.29-.06-.55-.16-.79-.3-1.26-.73-2.64-1.14-4.03-1.55-.14-.04-.28-.09-.41-.14-.28-.12-.47-.32-.35-.65.12-.32.38-.35.68-.25,1.17.38,2.35.74,3.52,1.12.46.15.92.31,1.38.47.21.08.43.18.54.4.13.24.28.51.11.77-.16.25-.44.13-.66.13M255.99,197.81c-.32-.05-.63-.2-.88-.39-1.05-.75-2.29-.97-3.5-1.28-.15-.04-.37.01-.4-.2-.03-.23.14-.36.32-.43.12-.05.25-.09.37-.09,1.45.05,2.89.2,4.22.86.13.06.26.14.38.22.35.23.54.53.37.95-.16.42-.51.46-.9.37M286.53,230.7c-.06.35-.23.55-.54.59-.33.04-.6-.13-.65-.45-.22-1.26-.54-2.51-.55-3.79,0-.1.01-.2.04-.29.06-.21.12-.42.38-.45.22-.02.36.13.45.31.08.15.16.32.19.5.22,1.06.44,2.12.65,3.19.03.14.02.29.02.39M301.2,227.34c-.06.42-.35.72-.71.67-.43-.06-.61-.35-.59-.76.05-.83-.13-1.65-.18-2.47-.01-.16-.01-.33-.01-.49,0-.27.09-.49.37-.56.31-.08.51.12.6.38.34,1.03.62,2.09.52,3.23M276.12,194.8c-.08.44-.59.64-.98.35-.59-.45-1.25-.76-1.88-1.13-.28-.17-.52-.38-.36-.75.15-.35.47-.37.79-.29.68.17,1.33.44,1.9.86.32.24.58.53.53.95M256.61,193.92c.43.12.96.25,1.38.6.23.2.42.43.28.76-.14.32-.44.39-.74.35-.61-.09-1.18-.34-1.73-.61-.29-.14-.36-.46-.22-.77.19-.42.56-.44,1.03-.33M277.94,211.75h-.05c-.33-.12-1.31-1.67-1.26-2.01.06-.38.46-.61.82-.41.65.36,1.11.91,1.3,1.63.13.49-.32.91-.81.79M293,212.18c.15.03.27.11.38.21.56.53.85,1.22,1.13,1.91.09.24,0,.45-.22.59-.21.14-.43.14-.64,0-.15-.1-.28-.23-.36-.39-.26-.54-.54-1.08-.77-1.63-.18-.43.06-.77.47-.7M293.57,220.21c-.07.35-.23.54-.52.59-.31.05-.56-.09-.66-.38-.16-.46-.27-.93-.38-1.4-.06-.24.05-.45.28-.56.19-.1.4-.08.54.07.47.49.62,1.11.73,1.69M290.17,215.32c.03-.19.15-.35.37-.42.23-.07.43,0,.57.17.35.46.57.98.72,1.53.05.21-.05.39-.22.5-.19.13-.39.12-.59,0-.36-.21-.9-1.33-.84-1.78M283.84,214.39c-.09.5-.58.73-.99.4-.4-.32-.64-.77-.72-1.28-.06-.39.29-.69.67-.63.49.08,1.13,1,1.04,1.5M286.72,200.41c.45.07,1.25,1.02,1.22,1.46-.03.36-.26.5-.6.48-.48-.03-1.26-.83-1.3-1.31-.03-.39.3-.69.68-.63M274.32,208.82c-.1.49-.68.68-1.07.32-.35-.32-.59-.73-.81-1.15-.13-.26-.05-.52.27-.62.55-.17,1.72.88,1.61,1.45M290.24,220.38c-.06.42-.49.65-.84.47-.43-.22-.81-.92-.75-1.39.06-.49.61-.75.97-.43.4.35.61.83.62,1.35M261.18,189.54c-.28-.05-.46-.08-.63-.11-.18-.03-.38-.02-.38-.27,0-.21.12-.36.31-.45.51-.25,1.89.07,2.21.52.11.14.21.3.09.49-.12.18-.3.17-.48.12-.41-.11-.81-.22-1.12-.3M288.12,217.3c-.07.34-.47.49-.71.22-.5-.56-.72-1.26-.84-1.98-.05-.28.2-.43.5-.32.25.1,1.1,1.81,1.05,2.09M290.76,204.81c.4.15.74.41.9.85.09.23,0,.45-.19.6-.21.16-.44.2-.67.02-.27-.21-.48-.48-.66-.77-.1-.16-.1-.34.02-.5.14-.18.34-.24.59-.2M291.45,209.46c-.08.3-.29.49-.65.45-.36-.04-.75-.54-.67-.88.07-.35.3-.53.66-.5.37.04.72.51.66.93M314.91,234.68c-.13.54-.28,1.07-.37,1.61-.2,1.23-.77,2.3-1.37,3.35-.14.24-.26.51-.62.39-.37-.13-.54-.4-.51-.79.01-.18.07-.35.14-.51.27-.6.44-1.22.55-1.87.38-2.26.98-4.48,1.28-6.75.3-2.27.15-4.54.09-6.82-.07-2.78-.31-5.54-.78-8.29-.03-.19-.05-.39-.06-.58-.01-.19,0-.37.22-.44.22-.07.33.1.42.25.38.71.6,1.47.76,2.25.78,3.65.87,7.35.84,11.06-.02,2.11-.07,4.22-.42,6.31-.04.27-.09.55-.14.82h-.02ZM312.22,233.28c-.06.54-.22,1.04-.47,1.52-.28.54-.23,1.17-.31,1.76-.04.29-.08.57-.19.84-.31.73-.67,1.44-1.08,2.13-.15.25-.33.4-.64.32-.3-.08-.47-.27-.52-.58-.03-.23-.02-.45.06-.67,1.55-4.12,2.27-8.37,2.13-12.79-.09-2.84-.27-5.68-.68-8.49-.03-.18-.04-.36-.05-.53-.01-.17-.02-.35.18-.4.19-.06.31.09.39.23.1.18.19.38.27.57.62,1.56.82,3.2.97,4.86.32,3.55.32,7.11,0,10.66-.02.19-.04.39-.06.58M319.03,232.33c.22-2.27.59-4.6.83-6.94.09-.88-.07-1.77,0-2.67.2-2.77.26-5.55.14-8.33-.06-1.36-.16-2.73-.24-4.09-.01-.18-.04-.39.19-.44.19-.04.28.12.36.27.24.47.37.97.47,1.48.38,1.92.46,3.87.45,5.82-.01,3.21-.18,6.41-.5,9.59-.27,2.66-.42,5.35-1.1,7.97-.15.57-.27,1.14-.52,1.67-.2.44-.51.6-.84.44-.39-.2-.37-.51-.23-.87.47-1.23.73-2.53.99-3.9M317.73,233.05c-.22,1.52-.88,3.3-1.29,5.13-.07.31-.87.93-1.19.93-.51,0-.87-.52-.63-1,1.3-2.66,1.73-5.57,2.3-8.43.05-.24.1-.47.16-.71.07-.29.26-.44.56-.43.32.02.53.18.57.49.03.25.04.52.02.78-.07.97-.2,1.94-.49,3.23M307.94,190.53c.31.08.56.25.82.42,1.36.9,2.45,2.08,3.51,3.29.86.98,1.72,1.95,2.35,3.1.16.29.45.67.11.91-.31.22-.59-.17-.79-.4-1.19-1.29-2.36-2.6-3.53-3.91-.75-.84-1.61-1.56-2.47-2.28-.16-.14-.32-.28-.46-.44-.14-.16-.16-.36-.03-.54.12-.17.29-.19.48-.16M275.95,184.13c1.25.2,2.4.68,3.47,1.34.42.25.82.53,1.2.83.28.21.45.52.22.84-.22.32-.58.31-.87.1-1.44-1.05-3.1-1.68-4.7-2.45-.09-.04-.17-.09-.25-.15-.13-.1-.26-.21-.19-.4.07-.17.23-.24.4-.23.24.02.48.08.72.12M316.87,222.81c.05-.23.09-.47.16-.7.09-.25.28-.4.55-.39.28,0,.47.18.51.44.21,1.36.21,2.71-.07,4.06-.08.37-.41.55-.79.52-.38-.03-.48-.32-.5-.66-.06-1.09.05-2.17.13-3.27M318.21,217.97c-.11.27-.21.66-.54.65-.38-.02-.51-.37-.52-.76-.06-1.41-.15-2.82-.2-4.23,0-.3-.15-.76.24-.85.43-.1.52.38.62.68.34,1.06.4,2.17.43,3.27.01.41,0,.81-.02,1.23M319.81,208.03c-.03.1-.06.21-.09.31-.03.11-.1.22-.23.23-.18.01-.18-.16-.22-.27-.54-1.4-1.21-2.73-1.92-4.04-.13-.24-.24-.49,0-.7.28-.23.54-.08.73.14.67.74,1.13,1.61,1.46,2.56.2.57.33,1.15.25,1.78M279.73,182.8c.94.28,1.85.83,2.65,1.56.24.21.38.53.14.83-.22.29-.59.35-.88.15-.83-.56-1.7-1.08-2.57-1.58-.26-.15-.41-.4-.27-.7.17-.34.49-.32.92-.25M315.82,207.07c-.04.29-.19.49-.49.52-.3.03-.52-.15-.57-.42-.16-.92-.45-1.79-.81-2.64-.09-.23-.05-.46.19-.59.2-.12.37-.04.53.09.68.53,1.3,2.19,1.15,3.05M307.5,212.81c-.05.23-.19.42-.45.48-.28.08-.55,0-.69-.25-.39-.69-.71-1.42-.98-2.17-.07-.2.02-.39.19-.52.16-.13.35-.16.55-.08.44.18,1.46,2.02,1.38,2.53M283.29,187.67c.85.34,1.62.82,2.24,1.5.18.19.26.47.06.72-.19.24-.49.26-.71.13-.81-.45-1.55-1-2.2-1.67-.14-.14-.14-.33-.02-.49.16-.22.38-.22.63-.19M313.3,210.9c-.06.3-.2.49-.44.6-.22.1-.36.07-.45-.18-.29-.83-.72-1.59-1.13-2.37-.08-.16-.19-.32-.02-.49.15-.15.33-.2.53-.15.21.05.39.18.52.35.44.59.76,1.24.97,1.95.03.11.02.22.03.29M316.22,199.32c.06.04.19.08.27.17.42.48.75,1.02.96,1.62.11.32-.02.62-.33.78-.31.16-.63.11-.83-.17-.36-.5-.68-1.04-.81-1.64-.1-.47.25-.85.74-.76M317.61,211.36c-.12.35-.32.6-.7.6-.4,0-.38-.33-.43-.59-.16-.81-.31-1.62-.66-2.38-.05-.11-.14-.23,0-.35.11-.09.24-.12.36-.07.12.04.25.11.31.21.45.71.9,1.42,1.1,2.26.03.11,0,.22.01.32M309.08,209.77c-.04.3-.14.44-.33.49-.22.07-.44.03-.56-.17-.38-.61-.57-1.3-.73-1.99-.04-.17.07-.31.22-.39.16-.09.33-.06.45.06.55.59.71,1.36.95,2M288.51,192.42c-.48-.21-.94-.55-1.24-1.05-.21-.34.15-.78.57-.69.56.12,1.01.44,1.32.92.12.2.1.41-.04.59-.14.18-.33.26-.61.22M313.82,201.96c-.07.35-.49.57-.75.34-.48-.44-.83-1-.95-1.65-.05-.3.22-.47.52-.41.5.09,1.27,1.24,1.17,1.72M308.22,220.15c.05-.34.21-.52.5-.56.26-.03.45.12.51.36.13.45.2.92.14,1.4-.03.27-.17.51-.48.53-.29.03-.43-.19-.52-.43-.17-.43-.15-.89-.15-1.3M311.65,206.11c-.07.31-.22.49-.47.56-.27.08-.53.02-.69-.22-.23-.32-.34-.7-.32-1.1.01-.28.16-.5.43-.59.29-.1.52.04.67.26.24.33.37.71.38,1.08M310.68,214.27c-.03.14-.16.3-.34.42-.21.14-.35.1-.43-.16-.16-.54-.35-1.08-.52-1.61-.06-.2-.18-.4.08-.55.25-.14.46-.07.66.11.32.3.64,1.28.55,1.78M304.56,207.38c-.05.37-.43.53-.73.27-.44-.39-.73-.91-.97-1.44-.14-.31.14-.59.46-.54.38.07,1.28,1.32,1.24,1.71M308.8,216.84c-.05.31-.14.5-.36.57-.27.08-.49-.05-.64-.25-.25-.35-.35-.76-.34-1.19,0-.21.14-.36.33-.44.2-.08.4-.05.53.11.31.36.46.8.48,1.19M284.31,186.68c-.46-.07-.82-.46-.74-.8.08-.33.32-.49.65-.45.4.05.79.49.73.84-.07.37-.37.4-.64.4M328.76,228.36c-.18,1.79-.64,3.51-1.25,5.2-.11.31-.25.6-.49.83-.4.39-.95.24-1.09-.3-.07-.27-.07-.54.02-.81,1.04-2.94,1.38-6.01,1.75-9.08.27-2.29.56-4.58.55-6.89,0-.93-.06-1.85-.1-2.78,0-.21-.05-.47.21-.54.29-.07.38.2.46.41.26.67.32,1.39.39,2.1.36,3.63.12,7.24-.32,10.84-.04.34-.08.68-.13,1.02M342.83,227.82c-.18,1.22-.59,2.46-1.01,3.69-.13.38-.31.71-.69.9-.49.24-.84.07-.92-.46-.03-.21-.02-.42.06-.62,1.15-2.79,1.54-5.73,1.75-8.7.02-.28.04-.55.08-.83.04-.26.15-.48.45-.49.3-.01.44.2.5.45.16.68.2,1.38.2,2.08-.01,1.32-.13,2.63-.41,3.99M331.26,228.88c-.22,1.25-.51,2.48-.97,3.67-.1.25-.19.52-.33.76-.21.37-.53.54-.94.36-.41-.19-.48-.55-.34-.95.48-1.33.88-2.68,1.21-4.06.36-1.52.67-3.04.83-4.6.02-.24.08-.48.14-.71.05-.19.13-.4.38-.37.22.02.28.21.3.39.06.38.12.77.12,1.16-.01,1.46-.17,2.91-.4,4.36M326.38,221.34c-.04.4-.2.76-.37,1.11-.04.08-.06.2-.19.18-.11-.01-.14-.11-.17-.21-.12-.41-.12-.83-.11-1.26.01-1.88.09-3.76,0-5.65-.06-1.25-.28-2.48-.39-3.72-.04-.49-.06-.97-.07-1.46,0-.16-.11-.41.13-.46.25-.05.29.22.36.38.24.54.39,1.1.51,1.67.45,2.14.55,4.31.47,6.49-.03.97-.11,1.94-.17,2.92M338.94,224.98c.22-1.39.33-2.78.21-4.18-.02-.25-.1-.59.26-.63.32-.03.39.29.46.54.42,1.57.37,3.15.12,4.74-.06.4-.12.8-.18,1.21-.05.38-.22.68-.64.64-.44-.03-.55-.36-.5-.74.07-.53.18-1.06.27-1.59M339.52,230.61c-.13.54-.21,1.16-.58,1.68-.23.32-.51.57-.94.42-.43-.14-.55-.49-.49-.9.11-.79.31-1.56.63-2.28.23-.5.63-.68,1.01-.55.4.13.55.47.47,1.05-.02.17-.06.35-.1.58M325.94,227.71c-.11.62-.17,1.26-.33,1.87-.09.36-.23.88-.71.78-.52-.1-.43-.63-.36-1.02.26-1.39.63-2.75.85-4.15.04-.24.15-.5.45-.49.35,0,.38.32.41.57.11.84-.17,1.64-.31,2.45M323.52,234.43c.16-.54.32-1.09.5-1.63.09-.27.23-.55.5-.7.3-.17.64-.04.62.25-.07,1.07-.03,2.14-.4,3.18-.11.3-.3.5-.62.55-.29.05-.51-.08-.66-.32-.12-.17-.13-.37-.09-.56.05-.26.11-.51.16-.76h-.02ZM332.76,224.85c.06-.32.1-.65.31-.91.12-.15.27-.24.46-.2.2.04.31.2.32.38.08,1.04.07,2.07-.11,3.1-.06.33-.28.63-.66.59-.42-.03-.48-.42-.47-.74.02-.74.1-1.49.15-2.23M324.79,207.61c-.29-.06-.48-.24-.5-.53-.06-.79-.37-1.5-.62-2.24l-.06-.19c-.08-.33-.21-.73.22-.88.5-.17.54.3.64.59.32.85.62,1.71.9,2.57.14.43-.15.75-.59.67M338.07,215.94c.03-.2.11-.35.31-.41.22-.06.41.03.49.22.36.84.65,1.69.61,2.62-.01.29-.19.49-.49.51-.26.02-.47-.12-.49-.37-.07-.83-.34-1.62-.42-2.44v-.13ZM344.33,226.11c.07-.3.13-.6.21-.9.07-.28.25-.47.55-.45.31.02.46.25.48.52.05.64,0,1.26-.22,1.87-.12.33-.39.5-.73.42-.33-.08-.45-.36-.41-.68.03-.26.08-.51.13-.77h-.01ZM332.36,221.01c.07-.36.21-.67.63-.7.42-.03.61.26.69.63.06.28.12.57.14.86.03.45-.24.78-.65.82-.4.03-.7-.2-.79-.64-.06-.32-.06-.65-.02-.97M344.56,231.38c-.08.34-.1.61-.29.8-.22.22-.49.35-.79.24-.32-.11-.42-.4-.41-.71.02-.37.11-.74.27-1.08.14-.3.37-.51.73-.44.33.06.47.32.5.64.02.21,0,.42,0,.54M327.25,209.62s0-.05.01-.13c0-.21.07-.39.31-.43.25-.05.46.07.51.28.18.72.48,1.42.35,2.19-.03.18-.1.31-.28.36-.17.05-.29-.04-.37-.17-.43-.59-.75-1.22-.53-2.09M331.51,217.51c-.05.26-.18.43-.43.49-.26.06-.46-.06-.56-.28-.22-.48-.3-.99-.28-1.51,0-.21.14-.36.35-.41.22-.06.39.03.5.2.3.46.4.98.41,1.5M333.04,231.92c-.12.7-.44,1.05-.8.95-.31-.09-.39-.51-.21-1.08.12-.36.25-.71.39-1.05.08-.2.2-.42.45-.36.26.06.28.29.26.51-.03.37-.07.74-.09,1.03M341.08,217.69c.07-.33.23-.54.53-.54.32,0,.25.29.27.48.08.53.13,1.06.2,1.59.05.4-.14.41-.43.29-.14-.06-.26-.15-.31-.29-.19-.51-.23-1.04-.26-1.52M344.64,219.29c-.04.22-.12.36-.28.42-.19.07-.35.01-.49-.13-.22-.22-.4-1.34-.26-1.64.14-.3.5-.35.65-.06.22.45.33.94.38,1.4M344.07,221.96c.04-.24.06-.43.28-.47.19-.04.3.09.39.23.24.41.37.87.32,1.35-.03.28-.18.51-.49.5-.28-.01-.4-.25-.43-.51-.03-.39-.05-.77-.08-1.1M322.74,200.23c-.08.36-.47.52-.74.27-.31-.28-.48-.66-.49-1.08,0-.38.29-.55.63-.39.34.16.68.84.61,1.2M332.6,217.27c.03-.22.12-.37.37-.35.33.03.84.8.76,1.19-.06.32-.27.48-.59.43-.38-.06-.63-.66-.54-1.28M330.4,220.15c.05-.36.09-.69.45-.68.38.02.41.36.42.66,0,.32.03.66-.31.86-.12.07-.26.07-.37-.02-.29-.25-.22-.58-.19-.82M333.46,215.09c-.02.13-.14.31-.42.29-.31-.03-.45-.41-.36-.94.04-.27.12-.53.46-.52.29.01.44.47.33,1.17M227.39,228.16c.35.12.71.35,1.05.6,1.54,1.1,2.75,2.52,3.87,4.02,1.12,1.51,2.28,3.01,2.97,4.79.18.47.37.94.53,1.41.17.52,0,.89-.44,1.03-.39.13-.75-.07-.92-.58-1.17-3.58-3.44-6.45-5.89-9.2-.48-.53-1.03-.98-1.49-1.54-.1-.13-.22-.26-.12-.44.09-.15.25-.13.45-.1M233.07,240.15c-.05.19-.22.4-.51.48-.31.08-.59,0-.79-.25-.1-.12-.17-.27-.23-.43-.73-2.02-1.6-3.98-2.53-5.91-.05-.1-.1-.2-.13-.31-.08-.23-.23-.48.04-.66.27-.18.46.06.63.21.47.41.84.9,1.17,1.43.92,1.5,1.67,3.08,2.27,4.74.07.2.15.4.08.71M237.8,236.71c-.04.24-.14.43-.39.51-.23.07-.41-.05-.58-.18-.17-.14-.24-.34-.32-.54-.66-1.64-1.29-3.29-2.34-4.74-.16-.23-.46-.53-.15-.82.33-.3.6.03.84.23.64.54,1.15,1.19,1.54,1.93.52.98.94,1.99,1.32,3.03.07.18.12.37.08.57M228.91,239.44c-.1.38-.31.62-.69.68-.42.06-.75-.11-.9-.5-.16-.41-.27-.83-.38-1.25-.2-.8-.38-1.61-.56-2.41v-.05c-.03-.37-.14-.81.29-.99.42-.18.59.26.77.51.83,1.13,1.1,2.47,1.45,3.78v.23ZM229.73,226.55c.34.07.63.25.91.44.9.63,1.65,1.42,2.37,2.23.24.27.38.61.43.97.06.4-.09.52-.47.38-.32-.12-.61-.3-.86-.53-.91-.86-1.77-1.77-2.8-2.49-.24-.17-.37-.42-.22-.73.13-.26.36-.3.63-.26M223.23,223.71c-.98-.42-1.97-.84-2.94-1.28-.24-.11-.39-.31-.31-.59.07-.27.29-.37.56-.39.52-.04,1,.13,1.47.3.54.21,1.05.5,1.58.76l.15.12c.23.22.46.46.29.8-.16.32-.48.28-.8.28M225.84,224.05c.61.24,1.26.55,1.78,1.09.21.22.39.49.17.78-.21.27-.53.24-.8.08-.58-.35-1.15-.72-1.71-1.1-.21-.14-.33-.37-.19-.64.15-.27.4-.3.75-.21M225.71,233.95c-.32-.06-.58-.23-.73-.52-.35-.67-.69-1.36-.92-2.08-.07-.2-.14-.44.11-.56.24-.12.34.12.45.27.53.72,1.04,1.45,1.56,2.17.12.17.2.34.05.53-.13.17-.31.22-.52.19M226.91,231.83c-.41-.06-.92-.79-.86-1.23.04-.35.34-.56.7-.51.49.08,1,.7.93,1.15-.05.35-.43.64-.77.59M351.05,229.08c-.15.89-.27,1.72-.65,2.49-.28.55-.76.86-1.13.69-.38-.17-.47-.75-.16-1.3.47-.81.48-1.74.7-2.61.16-.63.21-1.28.33-1.92.07-.37.2-.76.65-.72.44.04.52.44.54.81.05.88-.08,1.75-.27,2.55M353.2,230.02c-.07.7-.28,1.37-.56,2.01-.1.23-.19.45-.22.7-.04.43-.3.42-.58.26-.34-.21-.51-.54-.34-.92.39-.86.71-1.75,1.05-2.62.04-.09.09-.18.13-.26.12-.23.3-.45.57-.35.24.09.06.34.05.52-.02.23-.07.45-.11.67M351.09,224.02c-.02.07-.06.22-.12.35-.13.26-.34.41-.63.34-.28-.06-.47-.27-.43-.56.1-.75-.02-1.48-.14-2.22-.05-.31.06-.56.37-.65.33-.1.53.12.64.39.29.73.43,1.49.31,2.35M355.44,229.96c-.09.64-.25,1.29-.46,1.92-.07.21-.11.47-.43.43-.31-.05-.48-.25-.51-.56-.02-.18.04-.35.11-.52.34-.86.62-1.75.88-2.63.04-.14.1-.28.17-.4.08-.15.22-.29.39-.23.19.06.07.25.07.38-.02.54-.08,1.07-.21,1.61M355.12,222.98c.05-.18.06-.28.09-.37.08-.24.25-.39.5-.38.28,0,.38.21.42.45.11.66.15,1.32.13,1.98-.01.36-.17.6-.54.62-.38.02-.61-.22-.63-.59-.02-.6.01-1.2.02-1.71M352.62,225.01c.03-.09.05-.2.09-.3.08-.18.16-.38.4-.37.21,0,.28.2.33.37.07.22.17.44.12.66-.15.67-.2,1.35-.1,2.03.02.12.06.28-.11.34-.13.05-.25-.02-.36-.1-.18-.13-.31-.3-.33-.52-.07-.7-.11-1.39-.04-2.11"/>
  <g>
    <path class="cls-2" d="M362.04,126.47c9.58,20.98,15.92,33.71,13.91,61.23-2.43,33.23-25.13,50.87-28.02,83.35-5.43,61.05,31.12,71.4,28.17,126.56-1.85,34.44-25.55,52.71-28.27,85.69-.3,3.64-.59,10.4,1.38,12.94,3.75.43,3.93-17.99,4.85-22.67,3.64-18.55,16.01-32.26,21.45-49.61,4.54-14.49,5.24-32.05,4.08-48.02-2.85-39.29-29.91-46.83-27.17-99.55,1.88-36.23,25.29-51.87,27.27-84.47.61-10.13.52-27.81-1.36-37.41-4.38-22.46-20.67-38.69-24.62-61.2-1.1-6.25-.22-14.37-3.11-19.86-3.8-3.56-2.89,12.04-2.55,14.7,2.08,16.27,8.28,25.84,13.97,38.32ZM386.46,439.65c-8.21,17.5-16.19,31.79-14.94,55.27,6.27,2.05,3.95-8.58,4.94-15.08,4.64-30.46,24.89-45.66,27.72-81.07,4.03-50.47-25.95-65.71-28.14-103.29-3.3-56.67,24.66-63.05,28.15-109.12,3.72-49.17-22.8-61.2-27.72-97.13-.43-3.12-.13-16.22-1.85-16.47-1.71.95-3.01.56-3.19,3.45-.27,4.32,1.45,17.82,2.4,22.44,5.09,24.79,23.5,38.51,25.04,68.74,2.08,40.77-5.7,43.59-18.61,73.03-11.82,26.95-12.06,60.25-.36,87.44,12.98,30.18,21.19,31.77,18.97,73.84-.93,17.65-6.24,24.84-12.39,37.96ZM416.67,438.59c12.46-26.44,15.09-60.93,3.4-89.18-9-21.76-19.21-30.29-21.15-59.58-2.78-42.1,21.37-57.69,27.48-91.98,2.4-13.44.8-38.09-3-50.87-5.06-17.05-17.11-31.18-21.15-47.32-1.73-6.92-1.94-16.55-3.49-23.38-2.57-11.35-4.01,4.57-3.49,10.68,3.1,36.33,30.65,51,28.14,96.88-2.01,36.76-25.21,54.04-28.16,85.85-.59,6.39-.59,23.33,0,29.72,3.34,35.89,31.01,50.82,28.17,96.85-2.26,36.51-24.51,52.63-28.04,83.32-.45,3.92-1.48,20.22,2.98,15.36,1.66-17.01,4.58-29.35,10.99-43.47,2.11-4.64,5.43-8.87,7.31-12.87ZM434.68,225.87c-13.09,28.66-21.69,47.06-13.79,84.2,4.01,18.87,15.91,32.02,21.51,49.51,5.53,17.26,5.49,44.94-.12,62.17-5.29,16.2-17.18,29.52-21.18,47.29-.77,3.42-4.23,25.1-1.72,25.97l3.15-.67c1.03-11.29,1.92-20.65,5.56-31.16,9.45-27.27,25.2-38.92,23.37-76.32-2.12-43.25-26.57-58.23-28.13-92.7-2.6-57.57,26.28-63.45,28.25-113.12.21-5.44-1.25-19.76-2.22-25.23-4.05-22.92-20.59-39.24-24.82-62.26-.75-4.07-1.06-17-1.56-18.08-1.82-3.9-5.18-1.37-4.86,4.48,1.63,29.23,12.9,38.76,21.46,60.53,12.48,31.72,7.97,57.2-4.91,85.4ZM461.29,433.19c-6.18,13.32-14.63,24.26-17.63,41-.82,4.58-3.47,25.24,2.05,20.77,1.04-13.18,3.55-26.77,8.24-38.05,7.92-19.07,18.85-29.71,20.44-55.21,3.64-58.59-24.65-64.98-28.15-109.14-3.79-47.85,24.72-62.15,28.03-99.37,4.03-45.37-8.37-51.26-20.82-82.99-5.24-13.33-4.47-21.43-7.36-33.93-2.63-11.42-3.97,4.73-3.49,10.67,2.75,34.25,27.44,48.32,28.17,91.36.7,41.23-26.39,57.76-28.31,95.27-3.01,59.13,25,63.98,28.15,111.85.98,14.84-3.66,35.56-9.32,47.75ZM485.64,430.09c-7.38,17.3-16.22,28.17-19.24,49.54-.41,2.91-1.83,13.52-.12,15.08l3.41.05c1.48-12.12,1.89-22.82,6.11-33.74,12.31-31.92,24.41-35.1,22.18-79.79-1.85-37.1-24.89-51.46-27.27-85.82-3.94-56.76,25.23-63.21,27.27-108.93.68-15.18-.24-28.4-4.65-42.03-5.57-17.21-17.76-31.24-21.31-49.82-1.5-7.88.35-21.55-5.88-21.84-2.38,3.1,1.7,24.27,2.96,28.93,5.89,21.74,22.42,38.79,24.36,62.95,4.74,59-26.85,66.7-28.27,117.07-.83,29.52,7.84,40.56,17.7,62.14,13.08,28.63,15.48,56.3,2.73,86.2Z"/>
    <path class="cls-2" d="M434.68,225.87c12.88-28.2,17.39-53.69,4.91-85.4-8.56-21.77-19.83-31.3-21.46-60.53-.33-5.85,3.04-8.38,4.86-4.48.51,1.09.82,14.02,1.56,18.08,4.23,23.01,20.77,39.33,24.82,62.26.97,5.47,2.43,19.79,2.22,25.23-1.96,49.67-30.85,55.55-28.25,113.12,1.56,34.47,26.02,49.45,28.13,92.7,1.83,37.41-13.92,49.05-23.37,76.32-3.64,10.52-4.54,19.87-5.56,31.16l-3.15.67c-2.52-.86.95-22.54,1.72-25.97,4-17.77,15.89-31.09,21.18-47.29,5.62-17.22,5.65-44.9.12-62.17-5.6-17.49-17.5-30.64-21.51-49.51-7.9-37.13.7-55.54,13.79-84.2Z"/>
    <path class="cls-2" d="M386.46,439.65c6.16-13.12,11.46-20.31,12.39-37.96,2.22-42.07-5.99-43.65-18.97-73.84-11.69-27.19-11.46-60.49.36-87.44,12.91-29.44,20.68-32.25,18.61-73.03-1.54-30.24-19.95-43.96-25.04-68.74-.95-4.62-2.66-18.12-2.4-22.44.18-2.89,1.48-2.5,3.19-3.45,1.73.25,1.43,13.35,1.85,16.47,4.92,35.92,31.43,47.96,27.72,97.13-3.48,46.07-31.45,52.45-28.15,109.12,2.19,37.58,32.18,52.82,28.14,103.29-2.83,35.41-23.08,50.61-27.72,81.07-.99,6.49,1.33,17.12-4.94,15.08-1.25-23.48,6.73-37.77,14.94-55.27Z"/>
    <path class="cls-2" d="M485.64,430.09c12.75-29.89,10.35-57.57-2.73-86.2-9.86-21.57-18.53-32.61-17.7-62.14,1.42-50.37,33.01-58.08,28.27-117.07-1.94-24.16-18.47-41.21-24.36-62.95-1.26-4.65-5.34-25.83-2.96-28.93,6.23.28,4.37,13.96,5.88,21.84,3.54,18.57,15.74,32.61,21.31,49.82,4.41,13.64,5.33,26.85,4.65,42.03-2.04,45.72-31.21,52.17-27.27,108.93,2.39,34.35,25.42,48.71,27.27,85.82,2.23,44.69-9.87,47.87-22.18,79.79-4.21,10.92-4.62,21.62-6.11,33.74l-3.41-.05c-1.71-1.57-.29-12.18.12-15.08,3.02-21.37,11.86-32.24,19.24-49.54Z"/>
    <path class="cls-2" d="M362.04,126.47c-5.7-12.48-11.89-22.05-13.97-38.32-.34-2.67-1.25-18.26,2.55-14.7,2.89,5.49,2.01,13.62,3.11,19.86,3.95,22.51,20.24,38.74,24.62,61.2,1.87,9.6,1.97,27.29,1.36,37.41-1.98,32.6-25.39,48.24-27.27,84.47-2.73,52.72,24.33,60.26,27.17,99.55,1.16,15.97.46,33.54-4.08,48.02-5.44,17.35-17.8,31.06-21.45,49.61-.92,4.67-1.11,23.1-4.85,22.67-1.98-2.54-1.68-9.31-1.38-12.94,2.71-32.99,26.42-51.25,28.27-85.69,2.96-55.16-33.6-65.52-28.17-126.56,2.89-32.48,25.59-50.11,28.02-83.35,2.01-27.52-4.33-40.25-13.91-61.23Z"/>
    <path class="cls-2" d="M461.29,433.19c5.65-12.19,10.3-32.9,9.32-47.75-3.15-47.87-31.16-52.72-28.15-111.85,1.91-37.51,29-54.05,28.31-95.27-.73-43.04-25.41-57.11-28.17-91.36-.48-5.94.86-22.09,3.49-10.67,2.88,12.5,2.12,20.6,7.36,33.93,12.46,31.72,24.86,37.62,20.82,82.99-3.31,37.22-31.83,51.52-28.03,99.37,3.5,44.15,31.79,50.54,28.15,109.14-1.58,25.5-12.52,36.14-20.44,55.21-4.69,11.29-7.19,24.88-8.24,38.05-5.52,4.47-2.87-16.19-2.05-20.77,3-16.74,11.45-27.68,17.63-41Z"/>
    <path class="cls-2" d="M416.67,438.59c-1.88,4-5.21,8.23-7.31,12.87-6.41,14.13-9.32,26.46-10.99,43.47-4.47,4.86-3.43-11.44-2.98-15.36,3.52-30.7,25.78-46.81,28.04-83.32,2.84-46.03-24.83-60.96-28.17-96.85-.59-6.38-.59-23.33,0-29.72,2.96-31.82,26.16-49.09,28.16-85.85,2.51-45.88-25.04-60.55-28.14-96.88-.52-6.1.92-22.02,3.49-10.68,1.55,6.83,1.76,16.46,3.49,23.38,4.05,16.14,16.09,30.28,21.15,47.32,3.8,12.78,5.4,37.43,3,50.87-6.12,34.29-30.26,49.88-27.48,91.98,1.93,29.3,12.15,37.82,21.15,59.58,11.69,28.26,9.05,62.75-3.4,89.18Z"/>
  </g>
  <text class="cls-5" transform="translate(210.24 152.16) rotate(-25.61)"><tspan x="0" y="0">B</tspan></text>
  <text class="cls-5" transform="translate(224.18 145.52) rotate(-20.04)"><tspan x="0" y="0">O</tspan></text>
  <text class="cls-5" transform="translate(237.05 140.79) rotate(-14.6)"><tspan x="0" y="0">U</tspan></text>
  <text class="cls-5" transform="translate(251.58 137) rotate(-9.02)"><tspan x="0" y="0">L</tspan></text>
  <text class="cls-5" transform="translate(267.4 134.57) rotate(-3.13)"><tspan x="0" y="0">A</tspan></text>
  <text class="cls-5" transform="translate(280.99 133.75) rotate(2.56)"><tspan x="0" y="0">N</tspan></text>
  <text class="cls-5" transform="translate(297.16 134.47) rotate(8.66)"><tspan x="0" y="0">G</tspan></text>
  <text class="cls-5" transform="translate(312.63 136.85) rotate(14.44)"><tspan x="0" y="0">E</tspan></text>
  <text class="cls-5" transform="translate(326.67 140.48) rotate(19.79)"><tspan x="0" y="0">R</tspan></text>
  <text class="cls-5" transform="translate(339.47 145.16) rotate(24.16)"><tspan x="0" y="0">I</tspan></text>
  <text class="cls-5" transform="translate(348.22 148.98) rotate(28.78)"><tspan x="0" y="0">E</tspan></text>
  <text class="cls-5" transform="translate(362.22 156.94) rotate(32.85)"><tspan x="0" y="0">•</tspan></text>
  <text class="cls-5" transform="translate(366.86 159.78) rotate(36.87)"><tspan x="0" y="0">p</tspan></text>
  <text class="cls-5" transform="translate(377.42 167.65) rotate(41.79)"><tspan x="0" y="0">â</tspan></text>
  <text class="cls-5" transform="translate(386.87 176.04) rotate(46.47)"><tspan x="0" y="0">t</tspan></text>
  <text class="cls-5" transform="translate(395.87 185.6) rotate(50.75)"><tspan x="0" y="0">i</tspan></text>
  <text class="cls-5" transform="translate(401.88 192.75) rotate(55.57)"><tspan x="0" y="0">s</tspan></text>
  <text class="cls-5" transform="translate(411.56 207) rotate(62.18)"><tspan x="0" y="0">s</tspan></text>
  <text class="cls-5" transform="translate(418.88 220.91) rotate(67.97)"><tspan x="0" y="0">e</tspan></text>
  <text class="cls-5" transform="translate(424.33 234.41) rotate(73.33)"><tspan x="0" y="0">r</tspan></text>
  <text class="cls-5" transform="translate(428.11 247.45) rotate(77.04)"><tspan x="0" y="0">i</tspan></text>
  <text class="cls-5" transform="translate(430.3 256.78) rotate(82.21)"><tspan x="0" y="0">e</tspan></text>
  <text class="cls-5" transform="translate(432.25 272.76) rotate(86.3)"><tspan x="0" y="0">•</tspan></text>
  <text class="cls-5" transform="translate(432.7 278.19) rotate(90.12)"><tspan x="0" y="0">V</tspan></text>
  <text class="cls-5" transform="translate(432.62 290.96) rotate(94.33)"><tspan x="0" y="0">I</tspan></text>
  <text class="cls-5" transform="translate(432.05 300.47) rotate(99.32)"><tspan x="0" y="0">N</tspan></text>
  <text class="cls-5" transform="translate(429.4 316.65) rotate(105.59)"><tspan x="0" y="0">N</tspan></text>
  <text class="cls-5" transform="translate(425.06 332.06) rotate(111.23)"><tspan x="0" y="0">A</tspan></text>
  <text class="cls-5" transform="translate(420.24 344.52) rotate(116.28)"><tspan x="0" y="0">O</tspan></text>
  <text class="cls-5" transform="translate(414.08 356.82) rotate(120.67)"><tspan x="0" y="0">I</tspan></text>
  <text class="cls-5" transform="translate(409.43 364.93) rotate(125.44)"><tspan x="0" y="0">S</tspan></text>
  <text class="cls-5" transform="translate(400.29 377.74) rotate(131.16)"><tspan x="0" y="0">E</tspan></text>
  <text class="cls-5" transform="translate(390.72 388.67) rotate(136.5)"><tspan x="0" y="0">R</tspan></text>
  <text class="cls-5" transform="translate(380.79 397.99) rotate(140.88)"><tspan x="0" y="0">I</tspan></text>
  <text class="cls-5" transform="translate(373.45 404.09) rotate(145.54)"><tspan x="0" y="0">E</tspan></text>
  <text class="cls-5" transform="translate(360.03 413) rotate(149.67)"><tspan x="0" y="0">•</tspan></text>
  <text class="cls-5" transform="translate(355.44 415.88) rotate(153.99)"><tspan x="0" y="0">B</tspan></text>
  <text class="cls-5" transform="translate(341.56 422.62) rotate(159.55)"><tspan x="0" y="0">O</tspan></text>
  <text class="cls-5" transform="translate(328.75 427.44) rotate(164.99)"><tspan x="0" y="0">U</tspan></text>
  <text class="cls-5" transform="translate(314.24 431.32) rotate(170.57)"><tspan x="0" y="0">L</tspan></text>
  <text class="cls-5" transform="translate(298.42 433.87) rotate(176.47)"><tspan x="0" y="0">A</tspan></text>
  <text class="cls-5" transform="translate(284.85 434.79) rotate(-177.86)"><tspan x="0" y="0">N</tspan></text>
  <text class="cls-5" transform="translate(268.69 434.18) rotate(-171.76)"><tspan x="0" y="0">G</tspan></text>
  <text class="cls-5" transform="translate(253.19 431.92) rotate(-165.97)"><tspan x="0" y="0">E</tspan></text>
  <text class="cls-5" transform="translate(239.09 428.38) rotate(-160.61)"><tspan x="0" y="0">R</tspan></text>
  <text class="cls-5" transform="translate(226.29 423.79) rotate(-156.25)"><tspan x="0" y="0">I</tspan></text>
  <text class="cls-5" transform="translate(217.5 420.04) rotate(-151.63)"><tspan x="0" y="0">E</tspan></text>
  <text class="cls-5" transform="translate(203.45 412.17) rotate(-147.55)"><tspan x="0" y="0">•</tspan></text>
  <text class="cls-5" transform="translate(198.79 409.37) rotate(-143.54)"><tspan x="0" y="0">p</tspan></text>
  <text class="cls-5" transform="translate(188.17 401.58) rotate(-138.62)"><tspan x="0" y="0">â</tspan></text>
  <text class="cls-5" transform="translate(178.67 393.26) rotate(-133.94)"><tspan x="0" y="0">t</tspan></text>
  <text class="cls-5" transform="translate(169.61 383.76) rotate(-129.66)"><tspan x="0" y="0">i</tspan></text>
  <text class="cls-5" transform="translate(163.54 376.67) rotate(-124.85)"><tspan x="0" y="0">s</tspan></text>
  <text class="cls-5" transform="translate(153.75 362.47) rotate(-118.23)"><tspan x="0" y="0">s</tspan></text>
  <text class="cls-5" transform="translate(146.32 348.6) rotate(-112.44)"><tspan x="0" y="0">e</tspan></text>
  <text class="cls-5" transform="translate(140.79 335.16) rotate(-107.08)"><tspan x="0" y="0">r</tspan></text>
  <text class="cls-5" transform="translate(136.88 322.11) rotate(-102.96)"><tspan x="0" y="0">i</tspan></text>
  <text class="cls-5" transform="translate(134.66 312.83) rotate(-98.2)"><tspan x="0" y="0">e</tspan></text>
  <text class="cls-5" transform="translate(132.6 296.85) rotate(-94.11)"><tspan x="0" y="0">•</tspan></text>
  <text class="cls-5" transform="translate(132.1 291.44) rotate(-90.3)"><tspan x="0" y="0">V</tspan></text>
  <text class="cls-5" transform="translate(132.09 278.66) rotate(-86.08)"><tspan x="0" y="0">I</tspan></text>
  <text class="cls-5" transform="translate(132.6 269.14) rotate(-81.09)"><tspan x="0" y="0">N</tspan></text>
  <text class="cls-5" transform="translate(135.13 252.96) rotate(-74.82)"><tspan x="0" y="0">N</tspan></text>
  <text class="cls-5" transform="translate(139.36 237.51) rotate(-69.18)"><tspan x="0" y="0">A</tspan></text>
  <text class="cls-5" transform="translate(144.1 224.99) rotate(-64.11)"><tspan x="0" y="0">O</tspan></text>
  <text class="cls-5" transform="translate(150.17 212.67) rotate(-59.74)"><tspan x="0" y="0">I</tspan></text>
  <text class="cls-5" transform="translate(154.76 204.52) rotate(-54.97)"><tspan x="0" y="0">S</tspan></text>
  <text class="cls-5" transform="translate(163.8 191.65) rotate(-49.25)"><tspan x="0" y="0">E</tspan></text>
  <text class="cls-5" transform="translate(173.3 180.66) rotate(-43.91)"><tspan x="0" y="0">R</tspan></text>
  <text class="cls-5" transform="translate(183.17 171.26) rotate(-39.52)"><tspan x="0" y="0">I</tspan></text>
  <text class="cls-5" transform="translate(190.47 165.11) rotate(-34.87)"><tspan x="0" y="0">E</tspan></text>
  <text class="cls-5" transform="translate(203.82 156.1) rotate(-30.74)"><tspan x="0" y="0">•</tspan></text>
  <g>
    <path d="M246.52,334.83l-24.32,36.15h-4.67l20.6-30.33h-.1c-3.72,3.43-12.78,9.92-19.84,11.54l-.19-1.05c7.15-1.62,18.03-8.87,24.51-16.31h4.01Z"/>
    <path d="M220.87,384.62c0-3.15,1.62-5.44,3.72-5.44.95,0,1.43.57,1.43,1.34,0,1.24-.86,1.72-1.81,2.29-.95.57-2,1.14-2,2.58,0,2.86,3.24,5.91,9.16,5.91,10.49,0,21.84-10.21,34.53-27.09,5.06-6.58,10.11-14.78,10.11-22.32,0-3.91-1.62-6.77-5.63-6.77s-8.01,2.38-11.83,6.39c-5.72,5.82-10.3,13.45-10.3,19.08,0,3.72,1.53,6.29,4.96,6.29,5.53,0,11.45-6.29,15.55-12.69l.95.67c-4.29,6.39-10.02,13.07-16.88,13.07-5.15,0-8.87-3.24-8.87-8.87,0-10.11,14.5-25.09,26.33-25.09,6.2,0,9.44,3.53,9.44,9.44s-3.15,13.45-8.78,21.27c-12.88,17.93-27.85,27.57-39.58,27.57-6.87,0-10.49-3.43-10.49-7.63Z"/>
    <path d="M304.42,344.37c2.1,4.01,4.2,8.11,4.2,12.97,0,8.87-7.73,14.59-16.6,14.59s-12.02-3.91-12.02-8.97c0-8.01,9.35-13.07,19.84-17.84-2-4.29-2.77-6.77-2.77-10.11,0-6.96,7.44-14.4,15.36-14.4,3.72,0,6.1,1.91,6.1,4.96s-2.38,5.44-5.63,7.25l-.38-.76c3.15-1.72,4.96-3.82,4.96-6.49,0-2.29-1.81-4.01-5.06-4.01-6.39,0-11.26,5.91-11.26,12.11,0,3.34.86,5.82,2.77,9.63,11.92-5.34,23.65-10.78,23.65-20.79,0-4.01-2.77-9.25-11.16-9.25-6.49,0-10.97,3.34-13.07,6.58l-.86-.48c2.1-3.43,6.77-6.96,13.93-6.96,9.54,0,13.54,5.25,13.54,10.11,0,10.59-13.16,16.31-25.56,21.84ZM304.52,359.25c0-4.67-2.19-8.77-4.2-12.97-9.73,4.48-17.93,9.16-17.93,16.69,0,4.67,2.67,8.11,9.63,8.11,6.49,0,12.5-4.58,12.5-11.83Z"/>
    <path d="M333.32,355.34c-10.11,4.58-15.83,7.34-19.74,12.69l.1.1c2.77-1.91,6.2-3.72,8.97-3.72s4.96,1.62,6.87,3.15c1.72,1.34,3.62,2.86,5.82,2.86,2.86,0,5.91-2,9.35-5.91l.95.57c-4.1,4.29-7.06,6.87-12.11,6.87-3.72,0-6.01-1.62-8.01-3.15-1.62-1.24-3.24-2.29-5.25-2.29s-4.29.76-9.06,4.67l-.57-.48c4.01-7.15,10.4-10.78,18.98-14.78,10.4-4.77,20.51-10.78,20.51-20.98,0-4.01-1.91-6.49-6.3-6.49-4.01,0-7.82,2.19-10.97,5.44-2.29,2.19-3.72,4.96-3.72,6.87,0,1.72.95,2.86,3.24,2.86,5.44,0,9.73-4.58,12.4-8.97l.86.48c-2.77,4.77-7.73,9.35-13.35,9.35-2.96,0-4.39-1.62-4.39-4.1,0-2.29,1.24-5.06,3.82-7.63,2.77-2.86,7.54-5.34,12.59-5.34,6.77,0,9.73,3.43,9.73,8.49,0,9.92-10.97,15.07-20.7,19.46Z"/>
  </g>
  <circle class="cls-3" cx="282.44" cy="284.27" r="174.67"/>
  <circle class="cls-4" cx="282.44" cy="284.27" r="140.45"/>
  <g>
    <path d="M203.25,296.47c-.76,0-.82-.58-.82-1.11,0-.41-.29-1-.59-1.17-1.4,1.4-2.98,2.46-6.32,2.46-6.09,0-11.24-4.97-11.24-12.41s5.15-12.47,11.24-12.47c3.28,0,5.03,1.29,6.32,2.52.29-.23.59-.82.59-1.17,0-.53.23-1.11.82-1.11.7,0,.88.41.88,1.05v7.26c0,.47,0,1.11-.82,1.11-.88,0-.88-.64-.88-1.11,0-3.63-2.87-6.61-6.55-6.61-4.45,0-6.91,2.81-6.91,10.53s2.46,10.53,6.91,10.53c3.69,0,6.55-2.98,6.55-6.67,0-.35.12-1.11.88-1.11.59,0,.82.64.82,1.11v7.31c0,.59-.23,1.05-.88,1.05"/>
    <path d="M232.74,296.65c-6.09,0-11.24-4.97-11.24-12.41s5.15-12.47,11.24-12.47,11.24,5.03,11.24,12.47-5.09,12.41-11.24,12.41M232.74,273.71c-4.27,0-6.56,2.57-6.56,10.53s2.28,10.53,6.56,10.53,6.55-2.57,6.55-10.53-2.28-10.53-6.55-10.53"/>
    <path d="M268.44,294.37c2.81,0,3.16-.06,3.75-.06.47,0,.88.41.88,1.05s-.41.99-.88.99c-.59,0-.94-.29-5.68-.29h-.29c-4.74,0-5.09.29-5.68.29-.47,0-.88-.35-.88-.99s.41-1.05.88-1.05c.58,0,.94.06,3.75.06v-20.31c-2.81,0-3.16.06-3.75.06-.47,0-.88-.35-.88-.99s.41-1.05.88-1.05c.64,0,.88.29,5.09.29,1.99,0,2.93-.06,5.03-.06,6.44,0,9.89,2.98,9.89,7.14s-3.45,7.2-9.89,7.2h-2.22v7.72ZM268.44,285h2.22c4.21,0,5.74-1.52,5.74-5.56s-1.52-5.44-5.74-5.44h-2.22v11Z"/>
    <path d="M298.99,289.33l-2.17,5.03c1.46,0,2.17-.06,2.75-.06.41,0,.88.41.88,1.05s-.47.99-.88.99c-.59,0-.88-.29-3.8-.29s-3.16.29-3.69.29c-.47,0-.88-.35-.88-.99s.41-1.05.88-1.05c.58,0,1.05.06,2.63.06l9.48-21.77c.18-.53.35-.82.94-.82s.7.23.94.82l9.19,21.77c1.87,0,2.05-.06,2.63-.06.41,0,.88.41.88,1.05s-.47.99-.88.99c-.59,0-.76-.29-4.74-.29h-.06c-3.75,0-4.1.29-4.68.29-.41,0-.88-.35-.88-.99s.47-1.05.88-1.05c.58,0,.76.06,2.46.06l-2.11-5.03h-9.77ZM307.89,287.29l-3.92-9.42-4.1,9.42h8.02Z"/>
    <path d="M344.64,294.31c.47,0,.88.41.88,1.05s-.41.99-.88.99c-.59,0-.94-.29-5.68-.29h-.29c-4.74,0-5.09.29-5.68.29-.47,0-.88-.35-.88-.99s.41-1.05.88-1.05c.58,0,.94.06,3.75.06v-20.31c-2.81,0-3.16.06-3.75.06-.47,0-.88-.35-.88-.99s.41-1.05.88-1.05c.58,0,.94.29,5.68.29h.29c4.74,0,5.09-.29,5.68-.29.47,0,.88.41.88,1.05s-.41.99-.88.99c-.59,0-.94-.06-3.75-.06v20.31c2.81,0,3.16-.06,3.75-.06"/>
    <path d="M368.06,294.37c2.4,0,2.69-.06,3.28-.06.47,0,.88.41.88,1.05s-.41.99-.88.99c-.59,0-.82-.29-4.21-.29h-.12c-3.39,0-3.69.29-4.27.29-.41,0-.88-.35-.88-.99s.47-1.05.88-1.05c.59,0,.88.06,3.28.06v-20.31c-2.4,0-2.69.06-3.28.06-.41,0-.88-.35-.88-.99s.47-1.05.88-1.05c.59,0,.88.29,4.27.29h.53c.59,0,1.23-.06,1.64-.06.7,0,1.05.29,1.87,1.46l10.65,15.28v-14.98c-2.46,0-2.69.06-3.28.06-.47,0-.88-.35-.88-.99s.41-1.05.88-1.05c.58,0,.88.29,4.21.29h.12c3.39,0,3.69-.29,4.27-.29.41,0,.88.41.88,1.05s-.47.99-.88.99c-.58,0-.88-.06-3.28-.06v21.36c0,1.05-.53,1.35-.99,1.35-.58,0-.82-.23-1.29-.82l-13.4-19.25v17.67Z"/>
  </g>
</svg>