<?xml version="1.0" encoding="UTF-8"?>
<svg id="Layer_1" data-name="Layer 1" xmlns="http://www.w3.org/2000/svg" viewBox="0 0 391.19 41.27">
  <defs>
    <style>
      .cls-1 {
        fill: currentColor;
      }
    </style>
  </defs>
  <rect class="cls-1" x="206.04" y="19.91" width="169.6" height="1"/>
  <path class="cls-1" d="M378.81,21.46c.14-.08.26-.13.36-.13,1.24,0,2.25-.68,2.25-.92s-1.01-.92-2.25-.92c-.09,0-.22-.05-.36-.13.52-3.71-3.14-2.96-3.42-3.05-.23-.08.67.97.28,2.15-.01.04-.02.09-.03.13,0,0,0,0,0,0-.87,1.27-3.59.97-3.59,1.8s2.72.53,3.59,1.8c0,0,0,0,0,0,.01.04.02.09.03.13.39,1.18-.51,2.23-.28,2.15.28-.09,3.93.66,3.42-3.05"/>
  <rect class="cls-1" x="15.56" y="19.91" width="169.6" height="1"/>
  <path class="cls-1" d="M12.39,19.37c-.14.08-.27.13-.36.13-1.24,0-2.25.68-2.25.92s1.01.92,2.25.92c.09,0,.22.05.36.13-.52,3.71,3.14,2.96,3.42,3.05.23.08-.67-.97-.28-2.15.02-.04.02-.09.03-.13,0,0,0,0,0,0,.87-1.27,3.59-.97,3.59-1.8s-2.72-.53-3.59-1.8c0,0,0,0,0,0-.01-.04-.02-.09-.03-.13-.39-1.18.51-2.23.28-2.15-.28.09-3.93-.66-3.42,3.05"/>
  <path class="cls-1" d="M196.41,22.16c.15-.17,1.16.24,2,1.17.85.93,1.17,2.09,1.06,2.21-.11.12-1.16-.24-2-1.17-.85-.93-1.17-2.09-1.06-2.21M198.24,20.41c0-.24,1.35-1.02,3.01-1.02s3.01.78,3.01,1.02-1.35,1.02-3.01,1.02-3.01-.78-3.01-1.02M196.41,18.67c-.11-.12.22-1.27,1.06-2.21.85-.93,1.89-1.29,2-1.17.11.12-.21,1.28-1.06,2.21-.85.93-1.85,1.33-2,1.17M197.38,26.07c.94,1-.56,1.83-.2,1.89,4.48.74,4.24-4.65,4.72-4.54,4.01.95,7.51-2.43,7.51-3.01s-3.5-3.97-7.51-3.01c-.49.11-.24-5.27-4.72-4.54-.36.06,1.15.89.2,1.89-.78.83-2.71,2.37-3.18,4.16-.18.67-.14,1.15-.05,1.49-.09.35-.12.83.05,1.49.48,1.79,2.4,3.34,3.18,4.16"/>
  <path class="cls-1" d="M194.05,18.67c-.15.17-1.16-.24-2-1.17-.85-.93-1.17-2.09-1.06-2.21.11-.12,1.16.24,2,1.17.85.93,1.17,2.09,1.06,2.21M192.21,20.42c0,.24-1.35,1.02-3.01,1.02s-3.01-.78-3.01-1.02,1.35-1.02,3.01-1.02,3.01.78,3.01,1.02M194.05,22.16c.11.12-.22,1.27-1.06,2.21-.85.93-1.89,1.29-2,1.17-.11-.12.21-1.28,1.06-2.21.85-.93,1.85-1.33,2-1.17M193.08,14.76c-.94-1,.56-1.83.2-1.89-4.48-.74-4.24,4.65-4.72,4.54-4.01-.95-7.51,2.43-7.51,3.01s3.5,3.97,7.51,3.01c.49-.11.24,5.27,4.72,4.54.36-.06-1.15-.89-.2-1.89.78-.83,2.71-2.37,3.18-4.16.18-.67.14-1.15.05-1.49.09-.35.12-.83-.05-1.49-.48-1.79-2.4-3.34-3.18-4.16"/>
  <polygon class="cls-1" points="192.71 29.9 195.07 32.99 197.42 29.9 195.07 26.8 192.71 29.9"/>
  <polygon class="cls-1" points="192.71 11.37 195.07 14.47 197.42 11.37 195.07 8.28 192.71 11.37"/>
</svg>