<?xml version="1.0" encoding="UTF-8"?>
<svg id="Layer_1" data-name="Layer 1" xmlns="http://www.w3.org/2000/svg" viewBox="0 0 391.19 41.27">
  <defs>
    <style>
      .cls-1 {
        fill: currentColor;
      }
    </style>
  </defs>
  <path class="cls-1" d="M205.36,25c.61.68,1.18,1.4,1.81,2.08.14.15.28.3.42.45.14.15.29.29.44.43.15.14.3.28.45.41.15.13.31.26.47.39.16.12.33.25.49.36.03.02.06.04.09.06,1.27.86,2.8,1.41,4.33,1.28,1.53-.13,3.03-1.03,3.65-2.43.21-.49.32-1.05.15-1.55-.17-.5-.66-.92-1.19-.88-.66.05-1.07.72-1.63,1.07-.99.64-2.52.06-2.85-1.07-.23-.81.12-1.72.76-2.26.65-.54,1.54-.72,2.38-.6,1.82.26,3.26,1.96,3.43,3.78.16,1.83-.85,3.66-2.39,4.66-1.54,1-3.52,1.21-5.3.76-1.92-.49-3.58-1.68-5.07-2.99-1.49-1.31-2.85-2.76-4.45-3.94-1.24-.92-2.65-1.66-4.18-1.89-1.53-.23-3.19.11-4.34,1.14-.88.78-1.42,1.95-1.45,3.13-.03,1.18.45,2.37,1.3,3.2.24.24.54.45.88.45.41,0,.75-.35.93-.72.18-.37.27-.78.46-1.15.43-.83,1.43-1.31,2.34-1.14.91.17,1.67.99,1.76,1.92.1.96-.48,1.91-1.3,2.41-.82.5-1.84.6-2.79.43-2.41-.42-4.39-2.56-4.71-4.99-.32-2.43.98-4.96,3.09-6.2,1.86-1.1,4.19-1.21,6.25-.58.18.06.37.12.55.18.18.07.35.14.53.22.17.08.34.16.51.24.17.08.33.17.49.27.16.09.32.19.47.29.16.1.31.2.46.31.15.11.3.22.45.33.15.11.29.23.44.34.15.12.29.24.43.36.53.45,1,.93,1.45,1.44"/>
  <path class="cls-1" d="M175,25c-.61.68-1.19,1.4-1.81,2.08-.14.15-.28.3-.42.45-.14.15-.29.29-.44.43-.15.14-.3.28-.45.41-.15.13-.31.26-.47.39-.16.12-.33.25-.49.36-.03.02-.06.04-.09.06-1.27.86-2.8,1.41-4.33,1.28-1.53-.13-3.03-1.03-3.65-2.43-.21-.49-.32-1.05-.15-1.55.17-.5.66-.92,1.19-.88.66.05,1.07.72,1.63,1.07.99.64,2.52.06,2.85-1.07.23-.81-.12-1.72-.76-2.26-.65-.54-1.54-.72-2.38-.6-1.82.26-3.26,1.96-3.43,3.78-.16,1.83.85,3.66,2.39,4.66,1.54,1,3.52,1.21,5.3.76,1.92-.49,3.58-1.68,5.07-2.99,1.49-1.31,2.85-2.76,4.45-3.94,1.24-.92,2.65-1.66,4.18-1.89,1.53-.23,3.19.11,4.34,1.14.88.78,1.42,1.95,1.45,3.13.03,1.18-.45,2.37-1.3,3.2-.24.24-.54.45-.88.45-.41,0-.75-.35-.93-.72-.18-.37-.27-.78-.46-1.15-.43-.83-1.43-1.31-2.34-1.14-.91.17-1.67.99-1.76,1.92-.1.96.48,1.91,1.3,2.41.82.5,1.84.6,2.79.43,2.41-.42,4.39-2.56,4.71-4.99.32-2.43-.98-4.96-3.09-6.2-1.86-1.1-4.19-1.21-6.25-.58-.18.06-.37.12-.55.18-.18.07-.35.14-.53.22-.17.08-.34.16-.51.24-.17.08-.33.17-.49.27-.16.09-.32.19-.47.29-.16.1-.31.2-.46.31-.15.11-.3.22-.45.33-.15.11-.29.23-.44.34-.15.12-.29.24-.43.36-.53.45-1,.93-1.45,1.44"/>
  <path class="cls-1" d="M175,16.28c-.61-.68-1.19-1.39-1.81-2.08-.14-.15-.28-.3-.42-.45-.14-.15-.29-.29-.44-.43-.15-.14-.3-.28-.45-.41-.15-.13-.31-.26-.47-.39-.16-.12-.33-.25-.49-.36-.03-.02-.06-.04-.09-.06-1.27-.86-2.8-1.41-4.33-1.28-1.53.13-3.03,1.03-3.65,2.43-.21.49-.32,1.05-.15,1.55.17.5.66.92,1.19.88.66-.05,1.07-.72,1.63-1.07.99-.64,2.52-.06,2.85,1.07.23.81-.12,1.72-.76,2.26-.65.54-1.54.72-2.38.6-1.82-.26-3.26-1.96-3.43-3.78-.16-1.83.85-3.66,2.39-4.66,1.54-1,3.52-1.21,5.3-.76,1.92.49,3.58,1.68,5.07,2.99,1.49,1.31,2.85,2.76,4.45,3.94,1.24.92,2.65,1.66,4.18,1.89,1.53.23,3.19-.11,4.34-1.14.88-.78,1.42-1.95,1.45-3.13.03-1.18-.45-2.37-1.3-3.2-.24-.23-.54-.45-.88-.45-.41,0-.75.35-.93.72-.18.37-.27.78-.46,1.15-.43.83-1.43,1.31-2.34,1.14-.91-.17-1.67-.99-1.76-1.92-.1-.96.48-1.91,1.3-2.41.82-.5,1.84-.6,2.79-.43,2.41.42,4.39,2.56,4.71,4.99.32,2.43-.98,4.96-3.09,6.2-1.86,1.1-4.19,1.21-6.25.58-.18-.06-.37-.12-.55-.18-.18-.07-.35-.14-.53-.22-.17-.08-.34-.16-.51-.24-.17-.08-.33-.17-.49-.27-.16-.09-.32-.19-.47-.29-.16-.1-.31-.2-.46-.31-.15-.11-.3-.22-.45-.33-.15-.11-.29-.23-.44-.34-.15-.12-.29-.24-.43-.36-.53-.45-1-.93-1.45-1.44"/>
  <path class="cls-1" d="M205.36,16.3c.61-.68,1.18-1.39,1.81-2.08.14-.15.28-.3.42-.45.14-.15.29-.29.44-.43.15-.14.3-.28.45-.41.15-.13.31-.26.47-.39.16-.12.33-.25.49-.36.03-.02.06-.04.09-.06,1.27-.86,2.8-1.41,4.33-1.28,1.53.13,3.03,1.03,3.65,2.43.21.49.32,1.05.15,1.55-.17.5-.66.92-1.19.88-.66-.05-1.07-.72-1.63-1.07-.99-.64-2.52-.06-2.85,1.07-.23.81.12,1.72.76,2.26.65.54,1.54.72,2.38.6,1.82-.26,3.26-1.96,3.43-3.78.16-1.83-.85-3.66-2.39-4.66-1.54-1-3.52-1.21-5.3-.76-1.92.49-3.58,1.68-5.07,2.99-1.49,1.31-2.85,2.76-4.45,3.94-1.24.92-2.65,1.66-4.18,1.89-1.53.23-3.19-.11-4.34-1.14-.88-.78-1.42-1.95-1.45-3.13-.03-1.18.45-2.37,1.3-3.2.24-.23.54-.45.88-.45.41,0,.75.35.93.72.18.37.27.78.46,1.15.43.83,1.43,1.31,2.34,1.14.91-.17,1.67-.99,1.76-1.92.1-.96-.48-1.91-1.3-2.41-.82-.5-1.84-.6-2.79-.43-2.41.42-4.39,2.56-4.71,4.99-.32,2.43.98,4.96,3.09,6.2,1.86,1.1,4.19,1.21,6.25.58.18-.06.37-.12.55-.18.18-.07.35-.14.53-.22.17-.08.34-.16.51-.24.17-.08.33-.17.49-.27.16-.09.32-.19.47-.29.16-.1.31-.2.46-.31.15-.11.3-.22.45-.33.15-.11.29-.23.44-.34.15-.12.29-.24.43-.36.53-.45,1-.93,1.45-1.44"/>
  <rect class="cls-1" x="201.01" y="20.14" width="150.93" height="1"/>
  <rect class="cls-1" x="31.52" y="20.14" width="150.93" height="1"/>
  <path class="cls-1" d="M35.01,17.14c-1.93,0-3.5,1.57-3.5,3.5s1.56,3.49,3.5,3.49,3.5-1.56,3.5-3.49-1.56-3.5-3.5-3.5"/>
  <path class="cls-1" d="M356.18,17.14c-1.93,0-3.5,1.57-3.5,3.5s1.56,3.49,3.5,3.49,3.5-1.56,3.5-3.49-1.57-3.5-3.5-3.5"/>
</svg>